<?xml version="1.0" encoding="UTF-8" standalone="no"?>
<svg
   version="1.1"
   class="highcharts-root"
   style="font-size:12px;font-family:'Lucida Grande', 'Lucida Sans Unicode', Arial, Helvetica, sans-serif"
   width="434.48352"
   height="332.0499"
   viewBox="0 0 434.48352 332.0499"
   id="svg325"
   sodipodi:docname="fpbase-riboflavin-adapted.svg"
   inkscape:version="1.2.2 (732a01da63, 2022-12-09, custom)"
   xmlns:inkscape="http://www.inkscape.org/namespaces/inkscape"
   xmlns:sodipodi="http://sodipodi.sourceforge.net/DTD/sodipodi-0.dtd"
   xmlns="http://www.w3.org/2000/svg"
   xmlns:svg="http://www.w3.org/2000/svg">
  <sodipodi:namedview
     id="namedview327"
     pagecolor="#ffffff"
     bordercolor="#666666"
     borderopacity="1.0"
     inkscape:showpageshadow="2"
     inkscape:pageopacity="0.0"
     inkscape:pagecheckerboard="0"
     inkscape:deskcolor="#d1d1d1"
     showgrid="false"
     inkscape:zoom="1.035"
     inkscape:cx="237.68116"
     inkscape:cy="258.45411"
     inkscape:window-width="1848"
     inkscape:window-height="1016"
     inkscape:window-x="72"
     inkscape:window-y="27"
     inkscape:window-maximized="1"
     inkscape:current-layer="svg325" />
  <desc
     id="desc148">Created with Highcharts 7.2.2</desc>
  <defs
     id="defs183">
    <clipPath
       id="highcharts-msx2bl5-2573-">
      <rect
         x="0"
         y="0"
         width="1180"
         height="316"
         fill="none"
         id="rect150" />
    </clipPath>
    <pattern
       id="highcharts-default-pattern-0"
       patternUnits="userSpaceOnUse"
       patternContentUnits="userSpaceOnUse"
       width="10"
       height="10"
       x="0"
       y="0">
      <path
         d="M 0 0 L 10 10 M 9 -1 L 11 1 M -1 9 L 1 11"
         stroke="#7cb5ec"
         stroke-width="2"
         fill="none"
         id="path153" />
    </pattern>
    <pattern
       id="highcharts-default-pattern-1"
       patternUnits="userSpaceOnUse"
       patternContentUnits="userSpaceOnUse"
       width="10"
       height="10"
       x="0"
       y="0">
      <path
         d="M 0 10 L 10 0 M -1 1 L 1 -1 M 9 11 L 11 9"
         stroke="#434348"
         stroke-width="2"
         fill="none"
         id="path156" />
    </pattern>
    <pattern
       id="highcharts-default-pattern-2"
       patternUnits="userSpaceOnUse"
       patternContentUnits="userSpaceOnUse"
       width="10"
       height="10"
       x="0"
       y="0">
      <path
         d="M 3 0 L 3 10 M 8 0 L 8 10"
         stroke="#90ed7d"
         stroke-width="2"
         fill="none"
         id="path159" />
    </pattern>
    <pattern
       id="highcharts-default-pattern-3"
       patternUnits="userSpaceOnUse"
       patternContentUnits="userSpaceOnUse"
       width="10"
       height="10"
       x="0"
       y="0">
      <path
         d="M 0 3 L 10 3 M 0 8 L 10 8"
         stroke="#f7a35c"
         stroke-width="2"
         fill="none"
         id="path162" />
    </pattern>
    <pattern
       id="highcharts-default-pattern-4"
       patternUnits="userSpaceOnUse"
       patternContentUnits="userSpaceOnUse"
       width="10"
       height="10"
       x="0"
       y="0">
      <path
         d="M 0 3 L 5 3 L 5 0 M 5 10 L 5 7 L 10 7"
         stroke="#8085e9"
         stroke-width="2"
         fill="none"
         id="path165" />
    </pattern>
    <pattern
       id="highcharts-default-pattern-5"
       patternUnits="userSpaceOnUse"
       patternContentUnits="userSpaceOnUse"
       width="10"
       height="10"
       x="0"
       y="0">
      <path
         d="M 3 3 L 8 3 L 8 8 L 3 8 Z"
         stroke="#f15c80"
         stroke-width="2"
         fill="none"
         id="path168" />
    </pattern>
    <pattern
       id="highcharts-default-pattern-6"
       patternUnits="userSpaceOnUse"
       patternContentUnits="userSpaceOnUse"
       width="10"
       height="10"
       x="0"
       y="0">
      <path
         d="M 5 5 m -4 0 a 4 4 0 1 1 8 0 a 4 4 0 1 1 -8 0"
         stroke="#e4d354"
         stroke-width="2"
         fill="none"
         id="path171" />
    </pattern>
    <pattern
       id="highcharts-default-pattern-7"
       patternUnits="userSpaceOnUse"
       patternContentUnits="userSpaceOnUse"
       width="10"
       height="10"
       x="0"
       y="0">
      <path
         d="M 10 3 L 5 3 L 5 0 M 5 10 L 5 7 L 0 7"
         stroke="#2b908f"
         stroke-width="2"
         fill="none"
         id="path174" />
    </pattern>
    <pattern
       id="highcharts-default-pattern-8"
       patternUnits="userSpaceOnUse"
       patternContentUnits="userSpaceOnUse"
       width="10"
       height="10"
       x="0"
       y="0">
      <path
         d="M 2 5 L 5 2 L 8 5 L 5 8 Z"
         stroke="#f45b5b"
         stroke-width="2"
         fill="none"
         id="path177" />
    </pattern>
    <pattern
       id="highcharts-default-pattern-9"
       patternUnits="userSpaceOnUse"
       patternContentUnits="userSpaceOnUse"
       width="10"
       height="10"
       x="0"
       y="0">
      <path
         d="M 0 0 L 5 10 L 10 0"
         stroke="#91e8e1"
         stroke-width="2"
         fill="none"
         id="path180" />
    </pattern>
  </defs>
  <rect
     fill="none"
     class="highcharts-plot-background"
     x="4.4783802"
     y="2.619629e-07"
     width="430.00513"
     height="316"
     id="rect187"
     style="stroke-width:1" />
  <g
     class="highcharts-grid highcharts-xaxis-grid"
     data-z-index="1"
     id="g209"
     transform="matrix(0.36441113,0,0,1,0.8342689,-47)"
     style="stroke-width:1.65655">
    <path
       fill="none"
       data-z-index="1"
       class="highcharts-grid-line"
       d="M 21.5,47 V 363"
       opacity="1"
       id="path189"
       style="stroke-width:2.74415" />
    <path
       fill="none"
       data-z-index="1"
       class="highcharts-grid-line"
       d="M 141.5,47 V 363"
       opacity="1"
       id="path191"
       style="stroke-width:2.74415" />
    <path
       fill="none"
       data-z-index="1"
       class="highcharts-grid-line"
       d="M 262.5,47 V 363"
       opacity="1"
       id="path193"
       style="stroke-width:2.74415" />
    <path
       fill="none"
       data-z-index="1"
       class="highcharts-grid-line"
       d="M 383.5,47 V 363"
       opacity="1"
       id="path195"
       style="stroke-width:2.74415" />
    <path
       fill="none"
       data-z-index="1"
       class="highcharts-grid-line"
       d="M 504.5,47 V 363"
       opacity="1"
       id="path197"
       style="stroke-width:2.74415" />
    <path
       fill="none"
       data-z-index="1"
       class="highcharts-grid-line"
       d="M 624.5,47 V 363"
       opacity="1"
       id="path199"
       style="stroke-width:2.74415" />
    <path
       fill="none"
       data-z-index="1"
       class="highcharts-grid-line"
       d="M 745.5,47 V 363"
       opacity="1"
       id="path201"
       style="stroke-width:2.74415" />
    <path
       fill="none"
       data-z-index="1"
       class="highcharts-grid-line"
       d="M 866.5,47 V 363"
       opacity="1"
       id="path203"
       style="stroke-width:2.74415" />
    <path
       fill="none"
       data-z-index="1"
       class="highcharts-grid-line"
       d="M 987.5,47 V 363"
       opacity="1"
       id="path205"
       style="stroke-width:2.74415" />
    <path
       fill="none"
       data-z-index="1"
       class="highcharts-grid-line"
       d="M 1107.5,47 V 363"
       opacity="1"
       id="path207"
       style="stroke-width:2.74415" />
  </g>
  <g
     class="highcharts-grid highcharts-yaxis-grid"
     data-z-index="1"
     id="g221"
     transform="matrix(0.36441113,0,0,1,0.8342689,-47)"
     style="stroke-width:1.65655">
    <path
       fill="none"
       data-z-index="1"
       class="highcharts-grid-line"
       d="M 10,363.5 H 1190"
       opacity="1"
       id="path211"
       style="stroke-width:2.74415" />
    <path
       fill="none"
       data-z-index="1"
       class="highcharts-grid-line"
       d="M 10,284.5 H 1190"
       opacity="1"
       id="path213"
       style="stroke-width:2.74415" />
    <path
       fill="none"
       data-z-index="1"
       class="highcharts-grid-line"
       d="M 10,205.5 H 1190"
       opacity="1"
       id="path215"
       style="stroke-width:2.74415" />
    <path
       fill="none"
       data-z-index="1"
       class="highcharts-grid-line"
       d="M 10,126.5 H 1190"
       opacity="1"
       id="path217"
       style="stroke-width:2.74415" />
    <path
       fill="none"
       data-z-index="1"
       class="highcharts-grid-line"
       d="M 10,47.5 H 1190"
       opacity="1"
       id="path219"
       style="stroke-width:2.74415" />
  </g>
  <g
     class="highcharts-grid highcharts-yaxis-grid"
     data-z-index="1"
     id="g233"
     transform="matrix(0.36441113,0,0,1,0.8342689,-47)"
     style="stroke-width:1.65655">
    <path
       fill="none"
       data-z-index="1"
       class="highcharts-grid-line"
       d="M 10,363.5 H 1190"
       opacity="1"
       id="path223"
       style="stroke-width:2.74415" />
    <path
       fill="none"
       data-z-index="1"
       class="highcharts-grid-line"
       d="M 10,284.5 H 1190"
       opacity="1"
       id="path225"
       style="stroke-width:2.74415" />
    <path
       fill="none"
       data-z-index="1"
       class="highcharts-grid-line"
       d="M 10,205.5 H 1190"
       opacity="1"
       id="path227"
       style="stroke-width:2.74415" />
    <path
       fill="none"
       data-z-index="1"
       class="highcharts-grid-line"
       d="M 10,126.5 H 1190"
       opacity="1"
       id="path229"
       style="stroke-width:2.74415" />
    <path
       fill="none"
       data-z-index="1"
       class="highcharts-grid-line"
       d="M 10,47.5 H 1190"
       opacity="1"
       id="path231"
       style="stroke-width:2.74415" />
  </g>
  <rect
     fill="none"
     class="highcharts-plot-border"
     data-z-index="1"
     x="4.4783802"
     y="2.619629e-07"
     width="430.00513"
     height="316"
     id="rect235"
     style="stroke-width:1" />
  <g
     class="highcharts-axis highcharts-xaxis"
     data-z-index="2"
     id="g243"
     transform="matrix(0.36441113,0,0,1,0.8342689,-47)"
     style="stroke-width:1.65655">
    <text
       x="600"
       data-z-index="7"
       text-anchor="middle"
       class="highcharts-axis-title"
       style="color:#666666;display:none;fill:#666666;stroke-width:2.74415"
       y="397"
       id="text239"><tspan
         id="tspan237"
         style="stroke-width:1.65655">Wavelength</tspan></text>
    <path
       fill="none"
       class="highcharts-axis-line"
       stroke="#ccd6eb"
       stroke-width="1.65655"
       data-z-index="7"
       d="M 10,363.5 H 1190"
       id="path241" />
  </g>
  <g
     class="highcharts-axis highcharts-yaxis"
     data-z-index="2"
     id="g247"
     transform="matrix(0.36441113,0,0,1,0.8342689,-47)"
     style="stroke-width:1.65655">
    <path
       fill="none"
       class="highcharts-axis-line"
       data-z-index="7"
       d="M 10,47 V 363"
       id="path245"
       style="stroke-width:2.74415" />
  </g>
  <g
     class="highcharts-axis highcharts-yaxis"
     data-z-index="2"
     id="g251"
     transform="matrix(0.36441113,0,0,1,0.8342689,-47)"
     style="stroke-width:1.65655">
    <path
       fill="none"
       class="highcharts-axis-line"
       data-z-index="7"
       d="M 1190,47 V 363"
       id="path249"
       style="stroke-width:2.74415" />
  </g>
  <g
     class="highcharts-series-group"
     data-z-index="3"
     id="g265"
     transform="translate(-5.5216198,-47)">
    <g
       data-z-index="0.1"
       class="highcharts-series highcharts-series-0 highcharts-spline-series cat-D subtype-EM"
       transform="matrix(0.36441113,0,0,1,10,47)"
       clip-path="url(#highcharts-msx2bl5-2573-)"
       id="g255"
       style="fill:none;stroke:#004488;stroke-width:4.96965;stroke-dasharray:none;stroke-opacity:0.9">
      <path
         fill="none"
         d="m 385.91879,316 c 0,0 1.44909,-0.3792 2.41516,-0.632 0.96606,-0.2528 1.44909,-0.3792 2.41516,-0.632 0.96606,-0.2528 1.4491,-0.3792 2.41516,-0.632 0.96607,-0.2528 1.4491,-0.3792 2.41516,-0.632 0.96607,-0.2528 1.4491,-0.3792 2.41517,-0.632 0.96606,-0.2528 1.44909,-0.3792 2.41516,-0.632 0.96606,-0.2528 1.4491,-0.3792 2.41516,-0.632 0.96607,-0.2528 1.4491,-0.3792 2.41516,-0.632 0.96607,-0.2528 1.4491,-0.3792 2.41517,-0.632 0.96606,-0.2528 1.44909,-0.2528 2.41516,-0.632 0.96606,-0.3792 1.4491,-0.7584 2.41516,-1.264 0.96607,-0.5056 1.4491,-0.7584 2.41516,-1.264 0.96607,-0.5056 1.4491,-0.7584 2.41517,-1.264 0.96606,-0.5056 1.44909,-0.7584 2.41516,-1.264 0.96606,-0.5056 1.44909,-0.3792 2.41516,-1.264 0.96606,-0.8848 1.4491,-1.896 2.41516,-3.16 0.96607,-1.264 1.4491,-1.896 2.41516,-3.16 0.96607,-1.264 1.4491,-1.896 2.41517,-3.16 0.96606,-1.264 1.44909,-1.896 2.41516,-3.16 0.96606,-1.264 1.4491,-1.264 2.41516,-3.16 0.96607,-1.896 1.4491,-3.792 2.41516,-6.32 0.96607,-2.528 1.4491,-3.792 2.41517,-6.32 0.96606,-2.528 1.44909,-3.792 2.41516,-6.32 0.96606,-2.528 1.4491,-3.792 2.41516,-6.32 0.96607,-2.528 1.4491,-3.16 2.41516,-6.32 0.96607,-3.16 1.4491,-5.688 2.41517,-9.48 0.96606,-3.792 1.44909,-5.688 2.41516,-9.48 0.96606,-3.792 1.44909,-5.688 2.41516,-9.48 0.96606,-3.792 1.4491,-5.688 2.41516,-9.48 0.96607,-3.792 1.4491,-5.688 2.41516,-9.48 0.96607,-3.792 1.4491,-5.688 2.41517,-9.48 0.96606,-3.792 1.44909,-5.688 2.41516,-9.48 0.96606,-3.792 1.4491,-5.688 2.41516,-9.48 0.96607,-3.792 1.4491,-5.688 2.41516,-9.48 0.96607,-3.792 1.4491,-5.5616 2.41517,-9.48 0.96606,-3.9184 1.44909,-6.0672 2.41516,-10.112 0.96606,-4.0448 1.4491,-6.0672 2.41516,-10.112 0.96607,-4.0448 1.4491,-6.0672 2.41516,-10.112 0.96607,-4.0448 1.4491,-6.0672 2.41517,-10.112 0.96606,-4.0448 1.44909,-6.4464 2.41516,-10.112 0.96606,-3.6656 1.44909,-4.9296 2.41516,-8.216 0.96606,-3.2864 1.4491,-4.9296 2.41516,-8.216 0.96607,-3.2864 1.4491,-4.9296 2.41516,-8.216 0.96607,-3.2864 1.4491,-4.9296 2.41517,-8.216 0.96606,-3.2864 1.44909,-5.3088 2.41516,-8.216 0.96606,-2.9072 1.4491,-3.792 2.41516,-6.32 0.96607,-2.528 1.4491,-3.792 2.41516,-6.32 0.96607,-2.528 1.4491,-3.792 2.41517,-6.32 0.96606,-2.528 1.44909,-3.792 2.41516,-6.32 0.96606,-2.528 1.4491,-4.2976 2.41516,-6.32 0.96607,-2.0224 1.4491,-2.2752 2.41516,-3.792 0.96607,-1.5168 1.4491,-2.2752 2.41517,-3.792 0.96606,-1.5168 1.44909,-2.2752 2.41516,-3.792 0.96606,-1.5168 1.44909,-2.2752 2.41516,-3.792 0.96606,-1.5168 1.4491,-2.6544 2.41516,-3.792 0.96607,-1.1376 1.4491,-1.1376 2.41516,-1.896 0.96607,-0.7584 1.4491,-1.1376 2.41517,-1.896 0.96606,-0.7584 1.44909,-1.1376 2.41516,-1.896 0.96606,-0.7584 1.4491,-1.1376 2.41516,-1.896 0.96607,-0.7584 1.4491,-1.264 2.41516,-1.896 0.96607,-0.632 1.4491,-0.7584 2.41517,-1.264 0.96606,-0.5056 1.44909,-0.7584 2.41516,-1.264 0.96606,-0.5056 1.4491,-0.7584 2.41516,-1.264 0.96607,-0.5056 1.4491,-0.7584 2.41516,-1.264 0.96607,-0.5056 1.4491,-0.8848 2.41517,-1.264 0.96606,-0.3792 1.44909,-0.3792 2.41516,-0.632 0.96606,-0.2528 1.44909,-0.3792 2.41516,-0.632 0.96606,-0.2528 1.4491,-0.3792 2.41516,-0.632 0.96607,-0.2528 1.4491,-0.3792 2.41516,-0.632 0.96607,-0.2528 1.4491,-0.632 2.41517,-0.632 0.96606,0 1.44909,0 2.41516,0 0.96606,0 1.4491,0 2.41516,0 0.96607,0 1.4491,0 2.41516,0 0.96607,0 1.4491,0 2.41517,0 0.96606,0 1.44909,0 2.41516,0 0.96606,0 1.4491,0 2.41516,0 0.96607,0 1.4491,0 2.41516,0 0.96607,0 1.4491,0 2.41517,0 0.96606,0 1.44909,0 2.41516,0 0.96606,0 1.44909,0 2.41516,0 0.96606,0 1.4491,0.3792 2.41516,0.632 0.96607,0.2528 1.4491,0.3792 2.41516,0.632 0.96607,0.2528 1.4491,0.3792 2.41517,0.632 0.96606,0.2528 1.44909,0.3792 2.41516,0.632 0.96606,0.2528 1.4491,0.2528 2.41516,0.632 0.96607,0.3792 1.4491,0.7584 2.41516,1.264 0.96607,0.5056 1.4491,0.7584 2.41517,1.264 0.96606,0.5056 1.44909,0.7584 2.41516,1.264 0.96606,0.5056 1.4491,0.7584 2.41516,1.264 0.96607,0.5056 1.4491,0.7584 2.41516,1.264 0.96607,0.5056 1.4491,0.7584 2.41516,1.264 0.96607,0.5056 1.4491,0.7584 2.41517,1.264 0.96606,0.5056 1.44909,0.7584 2.41516,1.264 0.96606,0.5056 1.4491,0.7584 2.41516,1.264 0.96607,0.5056 1.4491,0.5056 2.41516,1.264 0.96607,0.7584 1.4491,1.5168 2.41517,2.528 0.96606,1.0112 1.44909,1.5168 2.41516,2.528 0.96606,1.0112 1.4491,1.5168 2.41516,2.528 0.96607,1.0112 1.4491,1.5168 2.41516,2.528 0.96607,1.0112 1.4491,1.3904 2.41517,2.528 0.96606,1.1376 1.44909,1.896 2.41516,3.16 0.96606,1.264 1.4491,1.896 2.41516,3.16 0.96607,1.264 1.4491,1.896 2.41516,3.16 0.96607,1.264 1.4491,1.896 2.41516,3.16 0.96607,1.264 1.4491,1.896 2.41517,3.16 0.96606,1.264 1.44909,1.896 2.41516,3.16 0.96606,1.264 1.4491,1.896 2.41516,3.16 0.96607,1.264 1.4491,1.896 2.41516,3.16 0.96607,1.264 1.4491,1.896 2.41517,3.16 0.96606,1.264 1.44909,1.896 2.41516,3.16 0.96606,1.264 1.4491,1.896 2.41516,3.16 0.96607,1.264 1.4491,1.896 2.41516,3.16 0.96607,1.264 1.4491,1.896 2.41517,3.16 0.96606,1.264 1.44909,1.896 2.41516,3.16 0.96606,1.264 1.4491,1.896 2.41516,3.16 0.96607,1.264 1.4491,1.896 2.41516,3.16 0.96607,1.264 1.4491,1.896 2.41516,3.16 0.96607,1.264 1.4491,1.896 2.41517,3.16 0.96606,1.264 1.44909,1.896 2.41516,3.16 0.96606,1.264 1.4491,1.896 2.41516,3.16 0.96607,1.264 1.4491,1.896 2.41516,3.16 0.96607,1.264 1.4491,1.896 2.41517,3.16 0.96606,1.264 1.44909,1.896 2.41516,3.16 0.96606,1.264 1.4491,1.896 2.41516,3.16 0.96607,1.264 1.4491,1.896 2.41516,3.16 0.96607,1.264 1.4491,1.896 2.41517,3.16 0.96606,1.264 1.44909,1.896 2.41516,3.16 0.96606,1.264 1.4491,1.896 2.41516,3.16 0.96607,1.264 1.4491,1.896 2.41516,3.16 0.96607,1.264 1.4491,1.896 2.41516,3.16 0.96607,1.264 1.4491,1.896 2.41517,3.16 0.96606,1.264 1.44909,1.896 2.41516,3.16 0.96606,1.264 1.4491,1.896 2.41516,3.16 0.96607,1.264 1.4491,1.896 2.41516,3.16 0.96607,1.264 1.4491,2.0224 2.41517,3.16 0.96606,1.1376 1.44909,1.5168 2.41516,2.528 0.96606,1.0112 1.4491,1.5168 2.41516,2.528 0.96607,1.0112 1.4491,1.5168 2.41516,2.528 0.96607,1.0112 1.4491,1.5168 2.41517,2.528 0.96606,1.0112 1.44909,1.5168 2.41516,2.528 0.96606,1.0112 1.4491,1.5168 2.41516,2.528 0.96607,1.0112 1.4491,1.5168 2.41516,2.528 0.96607,1.0112 1.4491,1.5168 2.41516,2.528 0.96607,1.0112 1.4491,1.5168 2.41517,2.528 0.96606,1.0112 1.44909,1.3904 2.41516,2.528 0.96606,1.1376 1.4491,1.896 2.41516,3.16 0.96607,1.264 1.4491,1.896 2.41516,3.16 0.96607,1.264 1.4491,1.896 2.41517,3.16 0.96606,1.264 1.44909,1.896 2.41516,3.16 0.96606,1.264 1.4491,2.0224 2.41516,3.16 0.96607,1.1376 1.4491,1.5168 2.41516,2.528 0.96607,1.0112 1.4491,1.5168 2.41517,2.528 0.96606,1.0112 1.44909,1.5168 2.41516,2.528 0.96606,1.0112 1.4491,1.5168 2.41516,2.528 0.96607,1.0112 1.4491,1.5168 2.41516,2.528 0.96607,1.0112 1.4491,1.5168 2.41516,2.528 0.96607,1.0112 1.4491,1.5168 2.41517,2.528 0.96606,1.0112 1.44909,1.5168 2.41516,2.528 0.96606,1.0112 1.4491,1.5168 2.41516,2.528 0.96607,1.0112 1.4491,1.6432 2.41516,2.528 0.96607,0.8848 1.4491,1.1376 2.41517,1.896 0.96606,0.7584 1.44909,1.1376 2.41516,1.896 0.96606,0.7584 1.4491,1.1376 2.41516,1.896 0.96607,0.7584 1.4491,1.1376 2.41516,1.896 0.96607,0.7584 1.4491,1.1376 2.41517,1.896 0.96606,0.7584 1.44909,1.1376 2.41516,1.896 0.96606,0.7584 1.4491,1.1376 2.41516,1.896 0.96607,0.7584 1.4491,1.1376 2.41516,1.896 0.96607,0.7584 1.4491,1.1376 2.41516,1.896 0.96607,0.7584 1.4491,1.1376 2.41517,1.896 0.96606,0.7584 1.44909,1.1376 2.41516,1.896 0.96606,0.7584 1.4491,1.1376 2.41516,1.896 0.96607,0.7584 1.4491,1.1376 2.41516,1.896 0.96607,0.7584 1.4491,1.1376 2.41517,1.896 0.96606,0.7584 1.44909,1.264 2.41516,1.896 0.96606,0.632 1.4491,0.7584 2.41516,1.264 0.96607,0.5056 1.4491,0.7584 2.41516,1.264 0.96607,0.5056 1.4491,0.7584 2.41517,1.264 0.96606,0.5056 1.44909,0.7584 2.41516,1.264 0.96606,0.5056 1.4491,0.632 2.41516,1.264 0.96607,0.632 1.4491,1.1376 2.41516,1.896 0.96607,0.7584 1.4491,1.1376 2.41516,1.896 0.96607,0.7584 1.4491,1.1376 2.41517,1.896 0.96606,0.7584 1.44909,1.1376 2.41516,1.896 0.96606,0.7584 1.4491,1.1376 2.41516,1.896 0.96607,0.7584 1.4491,1.1376 2.41516,1.896 0.96607,0.7584 1.4491,1.1376 2.41517,1.896 0.96606,0.7584 1.44909,1.1376 2.41516,1.896 0.96606,0.7584 1.4491,1.1376 2.41516,1.896 0.96607,0.7584 1.4491,1.264 2.41516,1.896 0.96607,0.632 1.4491,0.7584 2.41517,1.264 0.96606,0.5056 1.44909,0.7584 2.41516,1.264 0.96606,0.5056 1.4491,0.7584 2.41516,1.264 0.96607,0.5056 1.4491,0.7584 2.41516,1.264 0.96607,0.5056 1.4491,0.8848 2.41516,1.264 0.96607,0.3792 1.4491,0.3792 2.41517,0.632 0.96606,0.2528 1.44909,0.3792 2.41516,0.632 0.96606,0.2528 1.4491,0.3792 2.41516,0.632 0.96607,0.2528 1.4491,0.3792 2.41516,0.632 0.96607,0.2528 1.4491,0.2528 2.41517,0.632 0.96606,0.3792 1.44909,0.7584 2.41516,1.264 0.96606,0.5056 1.4491,0.7584 2.41516,1.264 0.96607,0.5056 1.4491,0.7584 2.41516,1.264 0.96607,0.5056 1.4491,0.7584 2.41517,1.264 0.96606,0.5056 1.44909,0.8848 2.41516,1.264 0.96606,0.3792 1.4491,0.3792 2.41516,0.632 0.96607,0.2528 1.4491,0.3792 2.41516,0.632 0.96607,0.2528 1.4491,0.3792 2.41516,0.632 0.96607,0.2528 1.4491,0.3792 2.41517,0.632 0.96606,0.2528 1.44909,0.3792 2.41516,0.632 0.96606,0.2528 1.4491,0.3792 2.41516,0.632 0.96607,0.2528 1.4491,0.3792 2.41516,0.632 0.96607,0.2528 1.4491,0.3792 2.41517,0.632 0.96606,0.2528 1.44909,0.3792 2.41516,0.632 0.96606,0.2528 1.4491,0.2528 2.41516,0.632 0.96607,0.3792 1.4491,0.7584 2.41516,1.264 0.96607,0.5056 1.4491,0.7584 2.41517,1.264 0.96606,0.5056 1.44909,0.7584 2.41516,1.264 0.96606,0.5056 1.4491,0.7584 2.41516,1.264 0.96607,0.5056 1.4491,0.8848 2.41516,1.264 0.96607,0.3792 1.4491,0.3792 2.41516,0.632 0.96607,0.2528 1.4491,0.3792 2.41517,0.632 0.96606,0.2528 1.44909,0.3792 2.41516,0.632 0.96606,0.2528 1.4491,0.3792 2.41516,0.632 0.96607,0.2528 1.4491,0.3792 2.41516,0.632 0.96607,0.2528 1.4491,0.3792 2.41517,0.632 0.96606,0.2528 1.44909,0.3792 2.41516,0.632 0.96606,0.2528 1.4491,0.3792 2.41516,0.632 0.96607,0.2528 1.4491,0.3792 2.41516,0.632 0.96607,0.2528 1.4491,0.632 2.41517,0.632 0.96606,0 1.44909,0 2.41516,0 0.96606,0 1.4491,0 2.41516,0 0.96607,0 1.4491,0 2.41516,0 0.96607,0 1.4491,0 2.41516,0 0.96607,0 1.4491,0 2.41517,0 0.96606,0 1.44909,0.3792 2.41516,0.632 0.96606,0.2528 1.4491,0.3792 2.41516,0.632 0.96607,0.2528 1.4491,0.3792 2.41516,0.632 0.96607,0.2528 1.4491,0.3792 2.41517,0.632 0.96606,0.2528 1.44909,0.3792 2.41516,0.632 0.96606,0.2528 1.4491,0.3792 2.41516,0.632 0.96607,0.2528 1.4491,0.3792 2.41516,0.632 0.96607,0.2528 1.4491,0.3792 2.41517,0.632 0.96606,0.2528 1.44909,0.3792 2.41516,0.632 0.96606,0.2528 1.4491,0.632 2.41516,0.632 0.96607,0 1.4491,0 2.41516,0 0.96607,0 1.4491,0 2.41516,0 0.96607,0 1.4491,0 2.41517,0 0.96606,0 1.44909,0 2.41516,0 0.96606,0 1.4491,0 2.41516,0 0.96607,0 1.4491,0.3792 2.41516,0.632 0.96607,0.2528 1.4491,0.3792 2.41517,0.632 0.96606,0.2528 1.44909,0.3792 2.41516,0.632 0.96606,0.2528 1.4491,0.3792 2.41516,0.632 0.96609,0.2528 1.44909,0.632 2.41519,0.632 0.966,0 1.4491,0 2.4151,0 0.9661,0 1.4491,0 2.4152,0 0.9661,0 1.4491,0 2.4152,0 0.966,0 1.4491,0 2.4151,0 0.9661,0 1.4491,0 2.4152,0 0.966,0 1.4491,0.3792 2.4151,0.632 0.9661,0.2528 1.4491,0.3792 2.4152,0.632 0.9661,0.2528 1.4491,0.3792 2.4152,0.632 0.966,0.2528 1.4491,0.3792 2.4151,0.632 0.9661,0.2528 1.4491,0.632 2.4152,0.632 0.9661,0 1.4491,0 2.4152,0 0.966,0 1.4491,0 2.4151,0 0.9661,0 1.4491,0 2.4152,0 0.966,0 1.4491,0 2.4151,0 0.9661,0 1.4491,0 2.4152,0 0.9661,0 1.4491,0 2.4152,0 0.966,0 1.4491,0 2.4151,0 0.9661,0 1.4491,0 2.4152,0 0.9661,0 1.4491,0 2.4152,0 0.966,0 1.4491,0 2.4151,0 0.9661,0 1.4491,0 2.4152,0 0.966,0 1.4491,0 2.4151,0 0.9661,0 1.4491,0 2.4152,0 0.9661,0 1.4491,0 2.4152,0 0.966,0 1.4491,0 2.4151,0 0.9661,0 1.4491,0.3792 2.4152,0.632 0.9661,0.2528 1.4491,0.3792 2.4152,0.632 0.966,0.2528 1.4491,0.3792 2.4151,0.632 0.9661,0.2528 1.4491,0.3792 2.4152,0.632 0.966,0.2528 1.4491,0.632 2.4151,0.632 0.9661,0 1.4491,0 2.4152,0 0.9661,0 1.4491,0 2.4152,0 0.966,0 1.4491,0 2.4151,0 0.9661,0 1.4491,0 2.4152,0 0.9661,0 1.4491,0 2.4152,0 0.966,0 1.4491,0 2.4151,0 0.9661,0 1.4491,0 2.4152,0 0.966,0 1.4491,0 2.4151,0 0.9661,0 1.4491,0 2.4152,0 0.9661,0 1.4491,0 2.4152,0 0.966,0 1.4491,0 2.4151,0 0.9661,0 1.4491,0 2.4152,0 0.9661,0 1.4491,0 2.4152,0 0.966,0 1.449,0 2.4151,0 0.9661,0 1.4491,0 2.4152,0 0.966,0 1.4491,0 2.4151,0 0.9661,0 1.4491,0 2.4152,0 0.9661,0 1.4491,0 2.4152,0 0.966,0 1.4491,0 2.4151,0 0.9661,0 1.4491,0 2.4152,0 0.9661,0 1.4491,0 2.4152,0 0.966,0 1.449,0 2.4151,0 0.9661,0 1.4491,0 2.4152,0 0.966,0 1.4491,0 2.4151,0 0.9661,0 1.4491,0 2.4152,0 0.9661,0 1.4491,0.3792 2.4152,0.632 0.966,0.2528 1.4491,0.3792 2.4151,0.632 0.9661,0.2528 1.4491,0.3792 2.4152,0.632 0.9661,0.2528 1.4491,0.3792 2.4151,0.632 0.9661,0.2528 1.4491,0.632 2.4152,0.632 0.9661,0 1.4491,0 2.4152,0 0.966,0 1.4491,0 2.4151,0 0.9661,0 1.4491,0 2.4152,0 0.9661,0 1.4491,0 2.4152,0 0.966,0 1.4491,0 2.4151,0 0.9661,0 1.4491,0 2.4152,0 0.9661,0 1.4491,0 2.4151,0 0.9661,0 1.4491,0 2.4152,0 0.9661,0 2.4152,0 2.4152,0"
         class="highcharts-graph"
         data-z-index="1"
         stroke="#004488"
         stroke-opacity="0.9"
         stroke-width="1.8"
         stroke-dasharray="none"
         id="path253"
         style="fill:none;stroke:#004488;stroke-width:4.96965;stroke-dasharray:none;stroke-opacity:0.9" />
    </g>
    <g
       data-z-index="0.1"
       class="highcharts-markers highcharts-series-0 highcharts-spline-series cat-D subtype-EM"
       transform="translate(10,47)"
       clip-path="none"
       id="g257" />
    <g
       data-z-index="0.1"
       class="highcharts-series highcharts-series-1 highcharts-spline-series cat-D subtype-EX"
       transform="matrix(0.36441113,0,0,1,10,47)"
       clip-path="url(#highcharts-msx2bl5-2573-)"
       id="g261"
       style="fill:none;stroke:#004488;stroke-width:4.96965;stroke-dasharray:4.96965, 4.96965;stroke-dashoffset:0;stroke-opacity:0.9">
      <path
         fill="none"
         d="m 11.568627,281.24 c 0,0 1.449098,0 2.415163,0 0.966065,0 1.449097,0 2.415162,0 0.966065,0 1.449097,0 2.415162,0 0.966065,0 1.449098,0 2.415163,0 0.966065,0 1.449097,0 2.415162,0 0.966065,0 1.449097,-0.7584 2.415162,-1.264 0.966065,-0.5056 1.449098,-0.7584 2.415163,-1.264 0.966065,-0.5056 1.449097,-0.7584 2.415162,-1.264 0.966065,-0.5056 1.449097,-0.7584 2.415162,-1.264 0.966065,-0.5056 1.449098,-0.632 2.415163,-1.264 0.966064,-0.632 1.449097,-1.1376 2.415162,-1.896 0.966065,-0.7584 1.449097,-1.1376 2.415162,-1.896 0.966065,-0.7584 1.449098,-1.1376 2.415162,-1.896 0.966065,-0.7584 1.449098,-1.1376 2.415163,-1.896 0.966065,-0.7584 1.449097,-1.264 2.415162,-1.896 0.966065,-0.632 1.449097,-0.7584 2.415162,-1.264 0.966065,-0.5056 1.449098,-0.7584 2.415163,-1.264 0.966065,-0.5056 1.449097,-0.7584 2.415162,-1.264 0.966065,-0.5056 1.449097,-0.7584 2.415162,-1.264 0.966065,-0.5056 1.449098,-0.632 2.415163,-1.264 0.966065,-0.632 1.449097,-1.1376 2.415162,-1.896 0.966065,-0.7584 1.449097,-1.1376 2.415162,-1.896 0.966065,-0.7584 1.449098,-1.1376 2.415163,-1.896 0.966064,-0.7584 1.449097,-1.1376 2.415162,-1.896 0.966065,-0.7584 1.449097,-1.3904 2.415162,-1.896 0.966065,-0.5056 1.449098,-0.3792 2.415162,-0.632 0.966065,-0.2528 1.449098,-0.3792 2.415163,-0.632 0.966065,-0.2528 1.449097,-0.3792 2.415162,-0.632 0.966065,-0.2528 1.449097,-0.3792 2.415162,-0.632 0.966065,-0.2528 1.449098,-0.2528 2.415163,-0.632 0.966065,-0.3792 1.449097,-0.7584 2.415162,-1.264 0.966065,-0.5056 1.449097,-0.7584 2.415162,-1.264 0.966065,-0.5056 1.449098,-0.7584 2.415163,-1.264 0.966065,-0.5056 1.449097,-0.7584 2.415162,-1.264 0.966065,-0.5056 1.449097,-1.264 2.415162,-1.264 0.966065,0 1.449098,0 2.415163,0 0.966064,0 1.449097,0 2.415159,0 0.96607,0 1.4491,0 2.41517,0 0.96606,0 1.44909,0 2.41516,0 0.96606,0 1.44909,0 2.41516,0 0.96606,0 1.4491,-0.3792 2.41516,-0.632 0.96607,-0.2528 1.4491,-0.3792 2.41516,-0.632 0.96607,-0.2528 1.4491,-0.3792 2.41517,-0.632 0.96606,-0.2528 1.44909,-0.3792 2.41516,-0.632 0.96606,-0.2528 1.4491,-0.632 2.41516,-0.632 0.96607,0 1.4491,0.3792 2.41516,0.632 0.96607,0.2528 1.4491,0.3792 2.41517,0.632 0.96606,0.2528 1.44909,0.3792 2.41516,0.632 0.96606,0.2528 1.4491,0.3792 2.41516,0.632 0.96607,0.2528 1.4491,0.632 2.41516,0.632 0.96607,0 1.4491,-0.3792 2.41517,-0.632 0.96606,-0.2528 1.44909,-0.3792 2.41516,-0.632 0.96606,-0.2528 1.44909,-0.3792 2.41516,-0.632 0.96606,-0.2528 1.4491,-0.3792 2.41516,-0.632 0.96607,-0.2528 1.4491,-0.632 2.41516,-0.632 0.96607,0 1.4491,0 2.41517,0 0.96606,0 1.44909,0 2.41516,0 0.96606,0 1.4491,0 2.41516,0 0.96607,0 1.4491,0 2.41516,0 0.96607,0 1.4491,0 2.41517,0 0.96606,0 1.44909,0 2.41516,0 0.96606,0 1.4491,0 2.41516,0 0.96607,0 1.4491,0 2.41516,0 0.96607,0 1.4491,0 2.41517,0 0.96606,0 1.44909,0 2.41516,0 0.96606,0 1.44909,0.7584 2.41516,1.264 0.96606,0.5056 1.4491,0.7584 2.41516,1.264 0.96607,0.5056 1.4491,0.7584 2.41516,1.264 0.96607,0.5056 1.4491,0.7584 2.41517,1.264 0.96606,0.5056 1.44909,0.8848 2.41516,1.264 0.96606,0.3792 1.4491,0.3792 2.41516,0.632 0.96607,0.2528 1.4491,0.3792 2.41516,0.632 0.96607,0.2528 1.4491,0.3792 2.41517,0.632 0.96606,0.2528 1.44909,0.3792 2.41516,0.632 0.96606,0.2528 1.4491,0.2528 2.41516,0.632 0.96607,0.3792 1.4491,0.7584 2.41516,1.264 0.96607,0.5056 1.4491,0.7584 2.41517,1.264 0.96606,0.5056 1.44909,0.7584 2.41516,1.264 0.96606,0.5056 1.44909,0.7584 2.41516,1.264 0.96606,0.5056 1.4491,0.7584 2.41516,1.264 0.96607,0.5056 1.4491,0.7584 2.41516,1.264 0.96607,0.5056 1.4491,0.7584 2.41517,1.264 0.96606,0.5056 1.44909,0.7584 2.41516,1.264 0.96606,0.5056 1.4491,0.7584 2.41516,1.264 0.96607,0.5056 1.4491,1.264 2.41516,1.264 0.96607,0 1.4491,0 2.41517,0 0.96606,0 1.44909,0 2.41516,0 0.96606,0 1.4491,0 2.41516,0 0.96607,0 1.4491,0 2.41516,0 0.96607,0 1.4491,0 2.41517,0 0.96606,0 1.44909,0.3792 2.41516,0.632 0.96606,0.2528 1.44909,0.3792 2.41516,0.632 0.96606,0.2528 1.4491,0.3792 2.41516,0.632 0.96607,0.2528 1.4491,0.3792 2.41516,0.632 0.96607,0.2528 1.4491,0.632 2.41517,0.632 0.96606,0 1.44909,-0.7584 2.41516,-1.264 0.96606,-0.5056 1.4491,-0.7584 2.41516,-1.264 0.96607,-0.5056 1.4491,-0.7584 2.41516,-1.264 0.96607,-0.5056 1.4491,-0.7584 2.41517,-1.264 0.96606,-0.5056 1.44909,-1.264 2.41516,-1.264 0.96606,0 1.4491,0 2.41516,0 0.96607,0 1.4491,0 2.41516,0 0.96607,0 1.4491,0 2.41517,0 0.96606,0 1.44909,0 2.41516,0 0.96606,0 1.44909,0 2.41516,0 0.96606,0 1.4491,-0.3792 2.41516,-0.632 0.96607,-0.2528 1.4491,-0.3792 2.41516,-0.632 0.96607,-0.2528 1.4491,-0.3792 2.41517,-0.632 0.96606,-0.2528 1.44909,-0.3792 2.41516,-0.632 0.96606,-0.2528 1.4491,-0.3792 2.41516,-0.632 0.96607,-0.2528 1.4491,-0.3792 2.41516,-0.632 0.96607,-0.2528 1.4491,-0.3792 2.41517,-0.632 0.96606,-0.2528 1.44909,-0.3792 2.41516,-0.632 0.96606,-0.2528 1.4491,-0.3792 2.41516,-0.632 0.96607,-0.2528 1.4491,-0.3792 2.41516,-0.632 0.96607,-0.2528 1.4491,-0.3792 2.41517,-0.632 0.96606,-0.2528 1.44909,-0.3792 2.41516,-0.632 0.96606,-0.2528 1.44909,-0.3792 2.41516,-0.632 0.96606,-0.2528 1.4491,-0.3792 2.41516,-0.632 0.96607,-0.2528 1.4491,-0.3792 2.41516,-0.632 0.96607,-0.2528 1.4491,-0.3792 2.41517,-0.632 0.96606,-0.2528 1.44909,-0.3792 2.41516,-0.632 0.96606,-0.2528 1.4491,-0.3792 2.41516,-0.632 0.96607,-0.2528 1.4491,-0.3792 2.41516,-0.632 0.96607,-0.2528 1.4491,-0.3792 2.41517,-0.632 0.96606,-0.2528 1.44909,-0.3792 2.41516,-0.632 0.96606,-0.2528 1.4491,-0.3792 2.41516,-0.632 0.96607,-0.2528 1.4491,-0.3792 2.41516,-0.632 0.96607,-0.2528 1.4491,-0.3792 2.41517,-0.632 0.96606,-0.2528 1.44909,-0.3792 2.41516,-0.632 0.96606,-0.2528 1.44909,-0.3792 2.41516,-0.632 0.96606,-0.2528 1.4491,-0.3792 2.41516,-0.632 0.96607,-0.2528 1.4491,-0.3792 2.41516,-0.632 0.96607,-0.2528 1.4491,-0.3792 2.41517,-0.632 0.96606,-0.2528 1.44909,-0.3792 2.41516,-0.632 0.96606,-0.2528 1.4491,-0.3792 2.41516,-0.632 0.96607,-0.2528 1.4491,-0.3792 2.41516,-0.632 0.96607,-0.2528 1.4491,-0.3792 2.41517,-0.632 0.96606,-0.2528 1.44909,-0.3792 2.41516,-0.632 0.96606,-0.2528 1.4491,-0.632 2.41516,-0.632 0.96607,0 1.4491,0 2.41516,0 0.96607,0 1.4491,0 2.41517,0 0.96606,0 1.44909,0 2.41516,0 0.96606,0 1.44909,0 2.41516,0 0.96606,0 1.4491,0 2.41516,0 0.96607,0 1.4491,0 2.41516,0 0.96607,0 1.4491,0 2.41517,0 0.96606,0 1.44909,0 2.41516,0 0.96606,0 1.4491,0 2.41516,0 0.96607,0 1.4491,0 2.41516,0 0.96607,0 1.4491,0.3792 2.41517,0.632 0.96606,0.2528 1.44909,0.3792 2.41516,0.632 0.96606,0.2528 1.4491,0.3792 2.41516,0.632 0.96607,0.2528 1.4491,0.3792 2.41516,0.632 0.96607,0.2528 1.4491,0.3792 2.41517,0.632 0.96606,0.2528 1.44909,0.3792 2.41516,0.632 0.96606,0.2528 1.44909,0.3792 2.41516,0.632 0.96606,0.2528 1.4491,0.3792 2.41516,0.632 0.96607,0.2528 1.4491,0.3792 2.41516,0.632 0.96607,0.2528 1.4491,0.3792 2.41517,0.632 0.96606,0.2528 1.44909,0.3792 2.41516,0.632 0.96606,0.2528 1.4491,0.3792 2.41516,0.632 0.96607,0.2528 1.4491,0.3792 2.41516,0.632 0.96607,0.2528 1.4491,0.3792 2.41517,0.632 0.96606,0.2528 1.44909,0.3792 2.41516,0.632 0.96606,0.2528 1.4491,0.3792 2.41516,0.632 0.96607,0.2528 1.4491,0.3792 2.41516,0.632 0.96607,0.2528 1.4491,0.3792 2.41517,0.632 0.96606,0.2528 1.44909,0.3792 2.41516,0.632 0.96606,0.2528 1.44909,0.2528 2.41516,0.632 0.96606,0.3792 1.4491,0.7584 2.41516,1.264 0.96607,0.5056 1.4491,0.7584 2.41516,1.264 0.96607,0.5056 1.4491,0.7584 2.41517,1.264 0.96606,0.5056 1.44909,0.7584 2.41516,1.264 0.96606,0.5056 1.4491,0.7584 2.41516,1.264 0.96607,0.5056 1.4491,0.7584 2.41516,1.264 0.96607,0.5056 1.4491,0.7584 2.41517,1.264 0.96606,0.5056 1.44909,0.7584 2.41516,1.264 0.96606,0.5056 1.4491,0.7584 2.41516,1.264 0.96607,0.5056 1.4491,0.5056 2.41516,1.264 0.96607,0.7584 1.4491,1.5168 2.41517,2.528 0.96606,1.0112 1.44909,1.5168 2.41516,2.528 0.96606,1.0112 1.44909,1.5168 2.41516,2.528 0.96606,1.0112 1.4491,1.5168 2.41516,2.528 0.96607,1.0112 1.4491,1.6432 2.41516,2.528 0.96607,0.8848 1.4491,1.1376 2.41517,1.896 0.96606,0.7584 1.44909,1.1376 2.41516,1.896 0.96606,0.7584 1.4491,1.1376 2.41516,1.896 0.96607,0.7584 1.4491,1.1376 2.41516,1.896 0.96607,0.7584 1.4491,1.1376 2.41517,1.896 0.96606,0.7584 1.44909,1.1376 2.41516,1.896 0.96606,0.7584 1.4491,1.1376 2.41516,1.896 0.96607,0.7584 1.4491,1.1376 2.41516,1.896 0.96607,0.7584 1.4491,1.1376 2.41517,1.896 0.96606,0.7584 1.44909,1.3904 2.41516,1.896 0.96606,0.5056 1.44909,0.3792 2.41516,0.632 0.96606,0.2528 1.4491,0.3792 2.41516,0.632 0.96607,0.2528 1.4491,0.3792 2.41516,0.632 0.96607,0.2528 1.4491,0.3792 2.41517,0.632 0.96606,0.2528 1.44909,0.2528 2.41516,0.632 0.96606,0.3792 1.4491,0.7584 2.41516,1.264 0.96607,0.5056 1.4491,0.7584 2.41516,1.264 0.96607,0.5056 1.4491,0.7584 2.41517,1.264 0.96606,0.5056 1.44909,0.7584 2.41516,1.264 0.96606,0.5056 1.4491,0.8848 2.41516,1.264 0.96607,0.3792 1.4491,0.3792 2.41516,0.632 0.96607,0.2528 1.4491,0.3792 2.41517,0.632 0.96606,0.2528 1.44909,0.3792 2.41516,0.632 0.96606,0.2528 1.44909,0.3792 2.41516,0.632 0.96606,0.2528 1.4491,0.632 2.41516,0.632 0.96607,0 1.4491,0 2.41516,0 0.96607,0 1.4491,0 2.41517,0 0.96606,0 1.44909,0 2.41516,0 0.96606,0 1.4491,0 2.41516,0 0.96607,0 1.4491,0 2.41516,0 0.96607,0 1.4491,0 2.41517,0 0.96606,0 1.44909,0 2.41516,0 0.96606,0 1.4491,0 2.41516,0 0.96607,0 1.4491,0 2.41516,0 0.96607,0 1.4491,0 2.41517,0 0.96606,0 1.44909,0 2.41516,0 0.96606,0 1.44909,0 2.41516,0 0.96606,0 1.4491,0 2.41516,0 0.96607,0 1.4491,0 2.41516,0 0.96607,0 1.4491,0 2.41517,0 0.96606,0 1.44909,0 2.41516,0 0.96606,0 1.4491,0 2.41516,0 0.96607,0 1.4491,0 2.41516,0 0.96607,0 1.4491,0 2.41517,0 0.96606,0 1.44909,0 2.41516,0 0.96606,0 1.4491,0 2.41516,0 0.96607,0 1.4491,0 2.41516,0 0.96607,0 1.4491,0 2.41517,0 0.96606,0 1.44909,0 2.41516,0 0.96606,0 1.44909,0 2.41516,0 0.96606,0 1.4491,0.3792 2.41516,0.632 0.96607,0.2528 1.4491,0.3792 2.41516,0.632 0.96607,0.2528 1.4491,0.3792 2.41517,0.632 0.96606,0.2528 1.44909,0.3792 2.41516,0.632 0.96606,0.2528 1.4491,0.632 2.41516,0.632 0.96607,0 1.4491,0 2.41516,0 0.96607,0 1.4491,0 2.41517,0 0.96606,0 1.44909,0 2.41516,0 0.96606,0 1.4491,0 2.41516,0 0.96607,0 1.4491,0 2.41516,0 0.96607,0 1.4491,0 2.41516,0 0.96607,0 1.4491,0 2.41517,0 0.96606,0 1.44909,0 2.41516,0 0.96606,0 2.41516,0 2.41516,0"
         class="highcharts-graph"
         data-z-index="1"
         stroke="#004488"
         stroke-opacity="0.9"
         stroke-width="2.98179"
         stroke-dasharray="5.4, 1.8"
         id="path259"
         style="fill:none;stroke:#004488;stroke-width:4.96965;stroke-dasharray:4.96965, 4.96965;stroke-dashoffset:0;stroke-opacity:0.9" />
    </g>
    <g
       data-z-index="0.1"
       class="highcharts-markers highcharts-series-1 highcharts-spline-series cat-D subtype-EX"
       transform="translate(10,47)"
       clip-path="none"
       id="g263" />
  </g>
  <text
     x="4.4783802"
     class="highcharts-title"
     data-z-index="4"
     style="color:#333333;font-size:18px;fill:#333333"
     y="-23"
     id="text267" />
  <text
     x="594.47839"
     text-anchor="middle"
     class="highcharts-subtitle"
     data-z-index="4"
     style="color:#666666;fill:#666666"
     y="-23"
     id="text269" />
  <text
     x="4.4783802"
     text-anchor="start"
     class="highcharts-caption"
     data-z-index="4"
     style="color:#666666;fill:#666666"
     y="350"
     id="text271" />
  <g
     id="g291"
     transform="translate(290.42072,5.833852)">
    <g
       class="highcharts-legend-item highcharts-spline-series highcharts-color-undefined cat-D subtype-EM highcharts-series-0"
       data-z-index="1"
       transform="translate(20.161237,-6.2601189)"
       id="g281">
      <path
         fill="none"
         d="M 0,11 H 16"
         class="highcharts-graph"
         stroke-dasharray="none"
         stroke="#004488"
         stroke-opacity="0.9"
         stroke-width="1.8"
         id="path275" />
      <text
         x="21"
         style="color:#333333;font-weight:600;font-size:11px;font-family:Roboto, '-apple-system', BlinkMacSystemFont, 'Segoe UI', Helvetica, Arial, sans-serif, 'Apple Color Emoji', 'Segoe UI Emoji', 'Segoe UI Symbol';fill:#333333"
         text-anchor="start"
         data-z-index="2"
         y="14"
         id="text279"><tspan
           id="tspan277">Riboflavin EM</tspan></text>
    </g>
    <g
       class="highcharts-legend-item highcharts-spline-series highcharts-color-undefined cat-D subtype-EX highcharts-series-1"
       data-z-index="1"
       transform="translate(21.632553,13.674754)"
       id="g289">
      <path
         fill="none"
         d="M 0,11 H 16"
         class="highcharts-graph"
         stroke-dasharray="5.4, 1.8"
         stroke="#004488"
         stroke-opacity="0.9"
         stroke-width="1.8"
         id="path283" />
      <text
         x="21"
         y="14"
         style="color:#333333;font-weight:600;font-size:11px;font-family:Roboto, '-apple-system', BlinkMacSystemFont, 'Segoe UI', Helvetica, Arial, sans-serif, 'Apple Color Emoji', 'Segoe UI Emoji', 'Segoe UI Symbol';fill:#333333"
         text-anchor="start"
         data-z-index="2"
         id="text287"><tspan
           id="tspan285">Riboflavin EX</tspan></text>
    </g>
  </g>
  <text
     x="8.7145996"
     style="color:#666666;font-size:11px;font-family:'Lucida Grande', 'Lucida Sans Unicode', Arial, Helvetica, sans-serif;fill:#666666"
     text-anchor="middle"
     y="331.91025"
     opacity="1"
     id="text297-3">300</text>
  <text
     x="52.7202"
     style="color:#666666;font-size:11px;font-family:'Lucida Grande', 'Lucida Sans Unicode', Arial, Helvetica, sans-serif;fill:#666666"
     text-anchor="middle"
     y="331.91025"
     opacity="1"
     id="text299-6">350</text>
  <text
     x="96.828217"
     style="color:#666666;font-size:11px;font-family:'Lucida Grande', 'Lucida Sans Unicode', Arial, Helvetica, sans-serif;fill:#666666"
     text-anchor="middle"
     y="331.91562"
     opacity="1"
     id="text301-7">400</text>
  <text
     x="140.83382"
     style="color:#666666;font-size:11px;font-family:'Lucida Grande', 'Lucida Sans Unicode', Arial, Helvetica, sans-serif;fill:#666666"
     text-anchor="middle"
     y="331.91562"
     opacity="1"
     id="text303-5">450</text>
  <text
     x="184.73871"
     style="color:#666666;font-size:11px;font-family:'Lucida Grande', 'Lucida Sans Unicode', Arial, Helvetica, sans-serif;fill:#666666"
     text-anchor="middle"
     y="331.91562"
     opacity="1"
     id="text305-3">500</text>
  <text
     x="228.74431"
     style="color:#666666;font-size:11px;font-family:'Lucida Grande', 'Lucida Sans Unicode', Arial, Helvetica, sans-serif;fill:#666666"
     text-anchor="middle"
     y="331.91562"
     opacity="1"
     id="text307-5">550</text>
  <text
     x="272.76358"
     style="color:#666666;font-size:11px;font-family:'Lucida Grande', 'Lucida Sans Unicode', Arial, Helvetica, sans-serif;fill:#666666"
     text-anchor="middle"
     y="331.91562"
     opacity="1"
     id="text309-6">600</text>
  <text
     x="316.7692"
     style="color:#666666;font-size:11px;font-family:'Lucida Grande', 'Lucida Sans Unicode', Arial, Helvetica, sans-serif;fill:#666666"
     text-anchor="middle"
     y="331.91562"
     opacity="1"
     id="text311-2">650</text>
  <text
     x="360.74063"
     style="color:#666666;font-size:11px;font-family:'Lucida Grande', 'Lucida Sans Unicode', Arial, Helvetica, sans-serif;fill:#666666"
     text-anchor="middle"
     y="331.91562"
     opacity="1"
     id="text313-9">700</text>
  <text
     x="404.74628"
     style="color:#666666;font-size:11px;font-family:'Lucida Grande', 'Lucida Sans Unicode', Arial, Helvetica, sans-serif;fill:#666666"
     text-anchor="middle"
     y="331.91562"
     opacity="1"
     id="text315-1">750</text>
  <g
     class="highcharts-axis-labels highcharts-yaxis-labels"
     data-z-index="7"
     id="g319"
     transform="translate(-5.5216198,-47)" />
  <g
     class="highcharts-axis-labels highcharts-yaxis-labels"
     data-z-index="7"
     id="g321"
     transform="translate(-5.5216198,-47)" />
</svg>
