<?xml version="1.0" standalone="no"?><!DOCTYPE svg PUBLIC "-//W3C//DTD SVG 1.1//EN" "http://www.w3.org/Graphics/SVG/1.1/DTD/svg11.dtd"><svg xmlns:xlink="http://www.w3.org/1999/xlink" version="1.1" class="highcharts-root" style="font-family:&quot;Lucida Grande&quot;, &quot;Lucida Sans Unicode&quot;, Arial, Helvetica, sans-serif;font-size:12px;" xmlns="http://www.w3.org/2000/svg" width="1200" height="400" viewBox="0 0 1200 400"><desc>Created with Highcharts 7.2.2</desc><defs><clipPath id="highcharts-msx2bl5-2573-"><rect x="0" y="0" width="1180" height="316" fill="none"></rect></clipPath><pattern id="highcharts-default-pattern-0" patternUnits="userSpaceOnUse" patternContentUnits="userSpaceOnUse" width="10" height="10" x="0" y="0"><path d="M 0 0 L 10 10 M 9 -1 L 11 1 M -1 9 L 1 11" stroke="#7cb5ec" stroke-width="2" fill="none"></path></pattern><pattern id="highcharts-default-pattern-1" patternUnits="userSpaceOnUse" patternContentUnits="userSpaceOnUse" width="10" height="10" x="0" y="0"><path d="M 0 10 L 10 0 M -1 1 L 1 -1 M 9 11 L 11 9" stroke="#434348" stroke-width="2" fill="none"></path></pattern><pattern id="highcharts-default-pattern-2" patternUnits="userSpaceOnUse" patternContentUnits="userSpaceOnUse" width="10" height="10" x="0" y="0"><path d="M 3 0 L 3 10 M 8 0 L 8 10" stroke="#90ed7d" stroke-width="2" fill="none"></path></pattern><pattern id="highcharts-default-pattern-3" patternUnits="userSpaceOnUse" patternContentUnits="userSpaceOnUse" width="10" height="10" x="0" y="0"><path d="M 0 3 L 10 3 M 0 8 L 10 8" stroke="#f7a35c" stroke-width="2" fill="none"></path></pattern><pattern id="highcharts-default-pattern-4" patternUnits="userSpaceOnUse" patternContentUnits="userSpaceOnUse" width="10" height="10" x="0" y="0"><path d="M 0 3 L 5 3 L 5 0 M 5 10 L 5 7 L 10 7" stroke="#8085e9" stroke-width="2" fill="none"></path></pattern><pattern id="highcharts-default-pattern-5" patternUnits="userSpaceOnUse" patternContentUnits="userSpaceOnUse" width="10" height="10" x="0" y="0"><path d="M 3 3 L 8 3 L 8 8 L 3 8 Z" stroke="#f15c80" stroke-width="2" fill="none"></path></pattern><pattern id="highcharts-default-pattern-6" patternUnits="userSpaceOnUse" patternContentUnits="userSpaceOnUse" width="10" height="10" x="0" y="0"><path d="M 5 5 m -4 0 a 4 4 0 1 1 8 0 a 4 4 0 1 1 -8 0" stroke="#e4d354" stroke-width="2" fill="none"></path></pattern><pattern id="highcharts-default-pattern-7" patternUnits="userSpaceOnUse" patternContentUnits="userSpaceOnUse" width="10" height="10" x="0" y="0"><path d="M 10 3 L 5 3 L 5 0 M 5 10 L 5 7 L 0 7" stroke="#2b908f" stroke-width="2" fill="none"></path></pattern><pattern id="highcharts-default-pattern-8" patternUnits="userSpaceOnUse" patternContentUnits="userSpaceOnUse" width="10" height="10" x="0" y="0"><path d="M 2 5 L 5 2 L 8 5 L 5 8 Z" stroke="#f45b5b" stroke-width="2" fill="none"></path></pattern><pattern id="highcharts-default-pattern-9" patternUnits="userSpaceOnUse" patternContentUnits="userSpaceOnUse" width="10" height="10" x="0" y="0"><path d="M 0 0 L 5 10 L 10 0" stroke="#91e8e1" stroke-width="2" fill="none"></path></pattern></defs><rect fill="#ffffff" class="highcharts-background" x="0" y="0" width="1200" height="400" rx="0" ry="0"></rect><rect fill="none" class="highcharts-plot-background" x="10" y="47" width="1180" height="316"></rect><g class="highcharts-grid highcharts-xaxis-grid" data-z-index="1"><path fill="none" data-z-index="1" class="highcharts-grid-line" d="M 21.5 47 L 21.5 363" opacity="1"></path><path fill="none" data-z-index="1" class="highcharts-grid-line" d="M 141.5 47 L 141.5 363" opacity="1"></path><path fill="none" data-z-index="1" class="highcharts-grid-line" d="M 262.5 47 L 262.5 363" opacity="1"></path><path fill="none" data-z-index="1" class="highcharts-grid-line" d="M 383.5 47 L 383.5 363" opacity="1"></path><path fill="none" data-z-index="1" class="highcharts-grid-line" d="M 504.5 47 L 504.5 363" opacity="1"></path><path fill="none" data-z-index="1" class="highcharts-grid-line" d="M 624.5 47 L 624.5 363" opacity="1"></path><path fill="none" data-z-index="1" class="highcharts-grid-line" d="M 745.5 47 L 745.5 363" opacity="1"></path><path fill="none" data-z-index="1" class="highcharts-grid-line" d="M 866.5 47 L 866.5 363" opacity="1"></path><path fill="none" data-z-index="1" class="highcharts-grid-line" d="M 987.5 47 L 987.5 363" opacity="1"></path><path fill="none" data-z-index="1" class="highcharts-grid-line" d="M 1107.5 47 L 1107.5 363" opacity="1"></path></g><g class="highcharts-grid highcharts-yaxis-grid" data-z-index="1"><path fill="none" data-z-index="1" class="highcharts-grid-line" d="M 10 363.5 L 1190 363.5" opacity="1"></path><path fill="none" data-z-index="1" class="highcharts-grid-line" d="M 10 284.5 L 1190 284.5" opacity="1"></path><path fill="none" data-z-index="1" class="highcharts-grid-line" d="M 10 205.5 L 1190 205.5" opacity="1"></path><path fill="none" data-z-index="1" class="highcharts-grid-line" d="M 10 126.5 L 1190 126.5" opacity="1"></path><path fill="none" data-z-index="1" class="highcharts-grid-line" d="M 10 47.5 L 1190 47.5" opacity="1"></path></g><g class="highcharts-grid highcharts-yaxis-grid" data-z-index="1"><path fill="none" data-z-index="1" class="highcharts-grid-line" d="M 10 363.5 L 1190 363.5" opacity="1"></path><path fill="none" data-z-index="1" class="highcharts-grid-line" d="M 10 284.5 L 1190 284.5" opacity="1"></path><path fill="none" data-z-index="1" class="highcharts-grid-line" d="M 10 205.5 L 1190 205.5" opacity="1"></path><path fill="none" data-z-index="1" class="highcharts-grid-line" d="M 10 126.5 L 1190 126.5" opacity="1"></path><path fill="none" data-z-index="1" class="highcharts-grid-line" d="M 10 47.5 L 1190 47.5" opacity="1"></path></g><rect fill="none" class="highcharts-plot-border" data-z-index="1" x="10" y="47" width="1180" height="316"></rect><g class="highcharts-axis highcharts-xaxis" data-z-index="2"><text x="600" data-z-index="7" text-anchor="middle" transform="translate(0,0)" class="highcharts-axis-title" style="color:#666666;display:none;fill:#666666;" y="397"><tspan>Wavelength</tspan></text><path fill="none" class="highcharts-axis-line" stroke="#ccd6eb" stroke-width="1" data-z-index="7" d="M 10 363.5 L 1190 363.5"></path></g><g class="highcharts-axis highcharts-yaxis" data-z-index="2"><path fill="none" class="highcharts-axis-line" data-z-index="7" d="M 10 47 L 10 363"></path></g><g class="highcharts-axis highcharts-yaxis" data-z-index="2"><path fill="none" class="highcharts-axis-line" data-z-index="7" d="M 1190 47 L 1190 363"></path></g><g class="highcharts-series-group" data-z-index="3"><g data-z-index="0.1" class="highcharts-series highcharts-series-0 highcharts-spline-series cat-D subtype-EM" transform="translate(10,47) scale(1 1)" clip-path="url(#highcharts-msx2bl5-2573-)"><path fill="none" d="M 385.91878505055 316 C 385.91878505055 316 387.36788243481 315.62080000000054 388.33394735765 315.368 C 389.300012280486 315.1152000000005 389.783044741904 314.98879999999946 390.74910966474 314.736 C 391.71517458758 314.4831999999995 392.19820704899996 314.35680000000053 393.16427197184 314.104 C 394.130336894676 313.8512000000005 394.61336935609404 313.72479999999996 395.57943427893 313.472 C 396.54549920176606 313.2192 397.028531663184 313.09279999999944 397.99459658602 312.84 C 398.96066150885997 312.5871999999995 399.44369397028004 312.4608000000006 400.40975889312 312.208 C 401.37582381595604 311.95520000000056 401.858856277374 311.82879999999955 402.82492120021 311.576 C 403.79098612304995 311.3231999999995 404.27401858447 311.19680000000056 405.24008350731 310.944 C 406.206148430146 310.69120000000055 406.689180891564 310.5647999999995 407.6552458144 310.312 C 408.62131073724 310.0591999999995 409.10434319866005 310.05920000000077 410.0704081215 309.68 C 411.036473044336 309.3008000000008 411.519505505754 308.92159999999996 412.48557042859 308.416 C 413.45163535142603 307.9104 413.93466781284405 307.6575999999989 414.90073273568 307.152 C 415.86679765852006 306.6463999999989 416.34983011994 306.393600000001 417.31589504278 305.888 C 418.281959965616 305.38240000000104 418.76499242703403 305.12959999999896 419.73105734987 304.624 C 420.69712227271003 304.1183999999989 421.18015473413 304.2448000000019 422.14621965697 303.36 C 423.112284579806 302.4752000000019 423.595317041224 301.464 424.56138196406 300.2 C 425.527446886896 298.936 426.01047934831394 298.30399999999736 426.97654427115 297.04 C 427.94260919399005 295.7759999999974 428.42564165541 295.1440000000026 429.39170657825 293.88 C 430.35777150108606 292.6160000000026 430.840803962504 291.9839999999974 431.80686888534 290.72 C 432.77293380818 289.4559999999974 433.2559662696 289.456000000004 434.22203119244 287.56 C 435.1880961152759 285.664000000004 435.671128576694 283.76800000000003 436.63719349953 281.24 C 437.60325842236597 278.712 438.08629088378405 277.4479999999948 439.05235580662 274.92 C 440.01842072946 272.3919999999948 440.50145319088006 271.12800000000516 441.46751811372 268.6 C 442.43358303655606 266.0720000000051 442.916615497974 264.8079999999948 443.88268042081 262.28000000000003 C 444.84874534364997 259.75199999999484 445.33177780507003 259.12000000000637 446.29784272791 255.96 C 447.26390765074603 252.80000000000643 447.746940112164 250.27200000000002 448.713005035 246.48000000000002 C 449.67906995783596 242.68800000000002 450.162102419254 240.7919999999923 451.12816734209 237 C 452.09423226493 233.2079999999923 452.57726472635005 231.31200000000769 453.54332964919 227.51999999999998 C 454.50939457202605 223.72800000000768 454.9924270334441 221.8319999999918 455.95849195628 218.03999999999996 C 456.9245568791201 214.2479999999918 457.4075893405399 212.35200000000816 458.37365426338 208.56 C 459.3397191862159 204.76800000000816 459.82275164763394 202.87199999999999 460.78881657047 199.07999999999998 C 461.754881493306 195.28799999999998 462.237913954724 193.3919999999923 463.20397887756 189.6 C 464.1700438004 185.8079999999923 464.65307626182005 183.9120000000078 465.61914118466 180.12 C 466.585206107496 176.32800000000785 467.06823856891396 174.4319999999923 468.03430349175 170.64000000000001 C 469.00036841458996 166.8479999999923 469.48340087601 165.07840000000806 470.44946579885 161.16 C 471.41553072168597 157.24160000000808 471.89856318310405 155.09279999999998 472.86462810594 151.048 C 473.830693028776 147.0032 474.313725490194 144.98079999999177 475.27979041303 140.93599999999998 C 476.24585533587 136.89119999999176 476.72888779729 134.86880000000843 477.69495272013 130.82399999999998 C 478.661017642966 126.77920000000843 479.14405010438406 124.7567999999914 480.11011502722 120.71199999999999 C 481.07617995006 116.66719999999144 481.55921241147996 114.26560000000765 482.52527733432 110.6 C 483.49134225715596 106.93440000000766 483.97437471857404 105.67039999999999 484.94043964141 102.38399999999999 C 485.906504564246 99.09759999999999 486.389537025664 97.45439999999311 487.3556019485 94.16799999999998 C 488.32166687134 90.88159999999311 488.80469933276 89.23840000000686 489.7707642556 85.952 C 490.736829178436 82.66560000000688 491.219861639854 81.02239999999313 492.18592656269 77.73599999999999 C 493.15199148553 74.44959999999313 493.63502394694996 72.42720000000588 494.60108886979 69.51999999999998 C 495.5671537926261 66.61280000000589 496.050186254044 65.72799999999998 497.01625117688 63.19999999999999 C 497.98231609971606 60.672 498.46534856113396 59.407999999994935 499.43141348397 56.879999999999995 C 500.3974784068099 54.35199999999494 500.88051086823 53.08800000000528 501.84657579107 50.56 C 502.812640713906 48.03200000000528 503.295673175324 46.76799999999473 504.26173809816 44.24000000000001 C 505.227803021 41.71199999999473 505.71083548242007 39.942400000004184 506.67690040526 37.920000000000016 C 507.642965328096 35.897600000004175 508.125997789514 35.64480000000003 509.09206271235 34.127999999999986 C 510.058127635186 32.61120000000003 510.541160096604 31.85279999999688 511.50722501944 30.336000000000013 C 512.47328994228 28.8191999999969 512.9563224037 28.060800000003162 513.92238732654 26.54400000000004 C 514.8884522493761 25.027200000003162 515.371484710794 24.268799999996975 516.33754963363 22.75200000000001 C 517.3036145564699 21.235199999996976 517.78664701789 20.097600000002377 518.75271194073 18.960000000000036 C 519.7187768635661 17.822400000002382 520.2018093249841 17.82239999999998 521.16787424782 17.06400000000002 C 522.133939170656 16.30559999999997 522.616971632074 15.92639999999845 523.58303655491 15.168000000000006 C 524.54910147775 14.40959999999844 525.03213393917 14.030400000001592 525.99819886201 13.271999999999991 C 526.9642637848459 12.513600000001603 527.4472962462639 12.134399999998466 528.4133611691 11.376000000000033 C 529.37942609194 10.617599999998477 529.86245855336 10.112000000001288 530.8285234762 9.480000000000018 C 531.794588399036 8.848000000001278 532.2776208604539 8.721600000000013 533.24368578329 8.216000000000008 C 534.209750706126 7.7104000000000035 534.692783167544 7.457599999998961 535.65884809038 6.951999999999998 C 536.6249130132201 6.446399999998953 537.1079454746401 6.193600000001004 538.07401039748 5.687999999999988 C 539.0400753203161 5.182400000000996 539.523107781734 4.92959999999896 540.48917270457 4.423999999999978 C 541.4552376274099 3.9183999999989743 541.93827008883 3.53920000000082 542.90433501167 3.160000000000025 C 543.8703999345059 2.780800000000837 544.3534323959241 2.7808000000000073 545.31949731876 2.52800000000002 C 546.285562241596 2.2752000000000034 546.7685947030141 2.1487999999994813 547.73465962585 1.896000000000015 C 548.70072454869 1.6431999999994775 549.18375701011 1.5168000000005475 550.14982193295 1.26400000000001 C 551.1158868557859 1.0112000000005437 551.5989193172039 0.8847999999994864 552.56498424004 0.632000000000005 C 553.53104916288 0.37919999999948234 554.0140816242999 0 554.98014654714 0 C 555.946211469976 0 556.429243931394 0 557.39530885423 0 C 558.361373777066 0 558.844406238484 0 559.81047116132 0 C 560.77653608416 0 561.2595685455801 0 562.22563346842 0 C 563.1916983912561 0 563.674730852674 0 564.64079577551 0 C 565.60686069835 0 566.08989315977 0 567.05595808261 0 C 568.0220230054459 0 568.505055466864 0 569.4711203897 0 C 570.437185312536 0 570.920217773954 0 571.88628269679 0 C 572.85234761963 0 573.33538008105 0 574.30144500389 0 C 575.267509926726 0 575.7505423881439 0 576.71660731098 0 C 577.68267223382 0 578.16570469524 0 579.13176961808 0 C 580.0978345409161 0 580.580867002334 0.3792000000005087 581.54693192517 0.632000000000005 C 582.51299684801 0.8848000000005127 582.99602930943 1.0111999999994725 583.96209423227 1.26400000000001 C 584.928159155106 1.5167999999994763 585.4111916165241 1.6432000000000277 586.37725653936 1.896000000000015 C 587.3433214621961 2.1488000000000316 587.8263539236141 2.2752000000005537 588.79241884645 2.52800000000002 C 589.75848376929 2.7808000000005575 590.24151623071 2.78079999999923 591.20758115355 3.160000000000025 C 592.1736460763859 3.539199999999213 592.6566785378039 3.9184000000010273 593.62274346064 4.423999999999978 C 594.58880838348 4.929600000001012 595.0718408449 5.182399999998943 596.03790576774 5.687999999999988 C 597.003970690576 6.193599999998951 597.487003151994 6.446400000000024 598.45306807483 6.951999999999998 C 599.419132997666 7.457600000000031 599.9021654590839 7.710400000001045 600.86823038192 8.216000000000008 C 601.83429530476 8.721600000001054 602.31732776618 8.974399999998973 603.28339268902 9.480000000000018 C 604.2494576118561 9.985599999998982 604.732490073274 10.238400000001064 605.69855499611 10.744000000000028 C 606.66461991895 11.249600000001074 607.14765238037 11.502399999998975 608.11371730321 12.008000000000038 C 609.079782226046 12.513599999998961 609.562814687464 12.766399999999999 610.5288796103 13.271999999999991 C 611.494944533136 13.777599999999985 611.9779769945541 14.030400000001068 612.94404191739 14.536000000000001 C 613.91010684023 15.041600000001077 614.39313930165 15.041599999998443 615.35920422449 15.800000000000011 C 616.325269147326 16.558399999998457 616.8083016087439 17.316800000002058 617.77436653158 18.32800000000003 C 618.7404314544199 19.33920000000205 619.22346391584 19.844799999997928 620.18952883868 20.855999999999995 C 621.155593761516 21.867199999997897 621.638626222934 22.37280000000002 622.60469114577 23.383999999999958 C 623.570756068606 24.395200000000013 624.053788530024 24.90080000000205 625.01985345286 25.911999999999978 C 625.9859183757001 26.92320000000207 626.46895083712 27.302399999997657 627.43501575996 28.439999999999998 C 628.4010806827961 29.577599999997656 628.8841131442141 30.33600000000264 629.85017806705 31.599999999999966 C 630.81624298989 32.86400000000264 631.29927545131 33.4959999999973 632.26534037415 34.75999999999999 C 633.2314052969859 36.02399999999732 633.714437758404 36.65599999999994 634.68050268124 37.920000000000016 C 635.6465676040759 39.18399999999994 636.1296000654941 39.81600000000266 637.09566498833 41.079999999999984 C 638.06172991117 42.34400000000266 638.5447623725901 42.97599999999747 639.51082729543 44.24000000000001 C 640.476892218266 45.50399999999749 640.9599246796839 46.13600000000256 641.92598960252 47.400000000000034 C 642.8920545253599 48.66400000000256 643.3750869867799 49.29599999999741 644.34115190962 50.56 C 645.307216832456 51.82399999999739 645.790249293874 52.45599999999997 646.75631421671 53.71999999999997 C 647.7223791395461 54.983999999999966 648.205411600964 55.61600000000252 649.1714765238 56.879999999999995 C 650.13754144664 58.14400000000253 650.62057390806 58.77599999999739 651.5866388309 60.03999999999999 C 652.5527037537361 61.30399999999739 653.0357362151541 61.936000000002664 654.00180113799 63.19999999999999 C 654.96786606083 64.46400000000266 655.45089852225 65.09599999999737 656.41696344509 66.35999999999999 C 657.383028367926 67.62399999999738 657.866060829344 68.2559999999999 658.83212575218 69.51999999999998 C 659.7981906750159 70.7839999999999 660.2812231364339 71.41600000000261 661.24728805927 72.68 C 662.21335298211 73.94400000000262 662.6963854435301 74.57599999999748 663.66245036637 75.84 C 664.628515289206 77.10399999999748 665.1115477506239 77.7360000000026 666.07761267346 79 C 667.0436775963 80.2640000000026 667.5267100577199 80.89599999999739 668.49277498056 82.16 C 669.458839903396 83.42399999999739 669.941872364814 84.056 670.90793728765 85.32 C 671.8740022104861 86.584 672.357034671904 87.21600000000254 673.32309959474 88.48000000000002 C 674.2891645175799 89.74400000000254 674.772196979 90.37599999999733 675.73826190184 91.64000000000001 C 676.704326824676 92.90399999999734 677.1873592860941 93.53600000000269 678.15342420893 94.80000000000001 C 679.11948913177 96.06400000000268 679.6025215931901 96.69599999999748 680.56858651603 97.96000000000001 C 681.534651438866 99.22399999999747 682.0176839002839 99.8559999999999 682.98374882312 101.11999999999998 C 683.9498137459559 102.3839999999999 684.4328462073739 103.01600000000259 685.39891113021 104.28 C 686.36497605305 105.54400000000261 686.8480085144699 106.1759999999974 687.81407343731 107.44 C 688.780138360146 108.7039999999974 689.263170821564 109.33600000000267 690.2292357444 110.6 C 691.19530066724 111.86400000000268 691.67833312866 112.49599999999741 692.6443980515 113.75999999999999 C 693.6104629743361 115.02399999999737 694.0934954357541 115.65600000000005 695.05956035859 116.91999999999999 C 696.0256252814261 118.18400000000007 696.508657742844 118.8160000000026 697.47472266568 120.08000000000001 C 698.44078758852 121.34400000000262 698.92382004994 121.97599999999736 699.88988497278 123.24000000000001 C 700.8559498956159 124.50399999999732 701.338982357034 125.13600000000261 702.30504727987 126.4 C 703.27111220271 127.66400000000262 703.7541446641301 128.2959999999975 704.72020958697 129.56 C 705.686274509806 130.82399999999748 706.1693069712239 131.456 707.13537189406 132.71999999999997 C 708.101436816896 133.98399999999998 708.5844692783139 134.6160000000025 709.55053420115 135.87999999999997 C 710.5165991239899 137.14400000000248 710.9996315854099 137.90239999999764 711.96569650825 139.04 C 712.931761431086 140.17759999999765 713.414793892504 140.556800000002 714.38085881534 141.56799999999998 C 715.34692373818 142.579200000002 715.8299561996 143.08479999999784 716.79602112244 144.09599999999998 C 717.762086045276 145.10719999999785 718.2451185066941 145.61280000000005 719.21118342953 146.624 C 720.1772483523661 147.63520000000008 720.6602808137841 148.14080000000212 721.62634573662 149.152 C 722.59241065946 150.16320000000215 723.07544312088 150.66879999999787 724.04150804372 151.68 C 725.0075729665559 152.69119999999788 725.490605427974 153.19680000000207 726.45667035081 154.208 C 727.42273527365 155.21920000000208 727.90576773507 155.7247999999979 728.87183265791 156.736 C 729.837897580746 157.7471999999979 730.320930042164 158.2528000000001 731.286994965 159.264 C 732.253059887836 160.27520000000007 732.7360923492539 160.78080000000207 733.70215727209 161.792 C 734.66822219493 162.80320000000208 735.1512546563501 163.1823999999977 736.11731957919 164.32 C 737.0833845020261 165.4575999999977 737.566416963444 166.21600000000262 738.53248188628 167.48000000000002 C 739.4985468091201 168.74400000000261 739.98157927054 169.37599999999736 740.94764419338 170.64000000000001 C 741.913709116216 171.90399999999732 742.396741577634 172.53599999999997 743.36280650047 173.79999999999998 C 744.328871423306 175.06399999999996 744.8119038847241 175.6960000000027 745.77796880756 176.96 C 746.7440337304 178.2240000000027 747.22706619182 178.98239999999768 748.19313111466 180.12 C 749.159196037496 181.25759999999767 749.6422284989139 181.636800000002 750.60829342175 182.648 C 751.5743583445899 183.65920000000202 752.05739080601 184.16479999999794 753.02345572885 185.17600000000002 C 753.989520651686 186.18719999999792 754.472553113104 186.69280000000003 755.43861803594 187.70399999999998 C 756.404682958776 188.71520000000007 756.887715420194 189.22080000000207 757.85378034303 190.232 C 758.8198452658701 191.24320000000208 759.30287772729 191.7487999999979 760.26894265013 192.76 C 761.2350075729661 193.77119999999792 761.7180400343841 194.27680000000214 762.68410495722 195.288 C 763.65016988006 196.29920000000214 764.13320234148 196.80479999999787 765.09926726432 197.816 C 766.065332187156 198.82719999999787 766.548364648574 199.33280000000207 767.51442957141 200.344 C 768.48049449425 201.35520000000207 768.96352695567 201.86079999999794 769.92959187851 202.872 C 770.895656801346 203.88319999999794 771.378689262764 204.51520000000008 772.3447541856 205.4 C 773.310819108436 206.28480000000005 773.7938515698539 206.5376000000015 774.75991649269 207.296 C 775.7259814155299 208.05440000000152 776.2090138769499 208.4335999999984 777.17507879979 209.192 C 778.1411437226259 209.95039999999838 778.624176184044 210.32960000000162 779.59024110688 211.088 C 780.55630602972 211.84640000000158 781.03933849114 212.22559999999837 782.00540341398 212.98399999999998 C 782.971468336816 213.74239999999838 783.454500798234 214.1216 784.42056572107 214.88 C 785.3866306439061 215.6384 785.8696631053241 216.0176000000016 786.83572802816 216.776 C 787.801792951 217.53440000000163 788.28482541242 217.91359999999844 789.25089033526 218.672 C 790.216955258096 219.43039999999846 790.699987719514 219.8096000000015 791.66605264235 220.56799999999998 C 792.6321175651899 221.3264000000015 793.11515002661 221.70559999999844 794.08121494945 222.464 C 795.047279872286 223.22239999999846 795.530312333704 223.60160000000008 796.49637725654 224.36 C 797.462442179376 225.11840000000007 797.9454746407939 225.49760000000157 798.91153956363 226.25600000000003 C 799.87760448647 227.0144000000016 800.3606369478899 227.3935999999984 801.32670187073 228.15200000000002 C 802.2927667935659 228.91039999999842 802.775799254984 229.28960000000157 803.74186417782 230.048 C 804.7079291006601 230.80640000000156 805.19096156208 231.18559999999837 806.15702648492 231.944 C 807.123091407756 232.7023999999984 807.606123869174 233.20799999999994 808.57218879201 233.84 C 809.538253714846 234.47199999999998 810.0212861762641 234.59840000000108 810.9873510991 235.10399999999998 C 811.95341602194 235.60960000000102 812.4364484833601 235.86239999999898 813.4025134062 236.368 C 814.368578329036 236.873599999999 814.851610790454 237.126400000001 815.81767571329 237.632 C 816.7837406361299 238.13760000000102 817.26677309755 238.39039999999898 818.23283802039 238.89600000000002 C 819.1989029432259 239.40159999999892 819.681935404644 239.52800000000002 820.64800032748 240.16 C 821.614065250316 240.79200000000006 822.097097711734 241.2976000000016 823.06316263457 242.056 C 824.02922755741 242.81440000000163 824.51226001883 243.19359999999844 825.47832494167 243.952 C 826.4443898645061 244.71039999999846 826.9274223259241 245.0896000000016 827.89348724876 245.848 C 828.8595521716001 246.60640000000163 829.3425846330199 246.98559999999839 830.30864955586 247.744 C 831.2747144786961 248.5023999999984 831.757746940114 248.88159999999993 832.72381186295 249.64 C 833.6898767857859 250.39839999999992 834.172909247204 250.77760000000154 835.13897417004 251.536 C 836.10503909288 252.29440000000156 836.5880715543001 252.6735999999985 837.55413647714 253.43200000000002 C 838.520201399976 254.1903999999985 839.0032338613939 254.56960000000157 839.96929878423 255.328 C 840.9353637070701 256.0864000000016 841.41839616849 256.4655999999984 842.38446109133 257.224 C 843.3505260141659 257.9823999999984 843.8335584755839 258.488 844.79962339842 259.12 C 845.765688321256 259.752 846.248720782674 259.878400000001 847.21478570551 260.384 C 848.18085062835 260.88960000000105 848.66388308977 261.142399999999 849.62994801261 261.648 C 850.596012935446 262.15359999999896 851.0790453968641 262.40640000000104 852.0451103197 262.912 C 853.01117524254 263.417600000001 853.4942077039601 263.67039999999895 854.4602726268 264.176 C 855.4263375496361 264.681599999999 855.909370011054 265.0608 856.87543493389 265.44 C 857.8414998567259 265.81919999999997 858.324532318144 265.81920000000054 859.29059724098 266.072 C 860.25666216382 266.3248000000005 860.73969462524 266.45119999999946 861.70575954808 266.704 C 862.671824470916 266.9567999999995 863.154856932334 267.08320000000055 864.12092185517 267.336 C 865.08698677801 267.5888000000005 865.5700192394299 267.71519999999947 866.53608416227 267.968 C 867.5021490851059 268.2207999999995 867.9851815465239 268.2208 868.95124646936 268.6 C 869.9173113921959 268.9792 870.400343853614 269.3584000000011 871.36640877645 269.86400000000003 C 872.3324736992902 270.36960000000107 872.81550616071 270.62239999999895 873.78157108355 271.128 C 874.747636006386 271.6335999999989 875.230668467804 271.88640000000106 876.19673339064 272.392 C 877.16279831348 272.89760000000103 877.6458307749001 273.15039999999897 878.61189569774 273.656 C 879.577960620576 274.161599999999 880.0609930819941 274.54080000000005 881.02705800483 274.92 C 881.9931229276659 275.29920000000004 882.4761553890839 275.29920000000055 883.44222031192 275.552 C 884.4082852347599 275.8048000000005 884.89131769618 275.9311999999994 885.85738261902 276.18399999999997 C 886.823447541856 276.43679999999944 887.306480003274 276.56320000000056 888.27254492611 276.81600000000003 C 889.23860984895 277.0688000000006 889.7216423103698 277.1951999999995 890.68770723321 277.448 C 891.653772156046 277.70079999999945 892.1368046174641 277.8272 893.1028695403 278.08 C 894.0689344631361 278.3328 894.5519669245541 278.45920000000046 895.51803184739 278.712 C 896.48409677023 278.96480000000054 896.96712923165 279.09119999999945 897.93319415449 279.344 C 898.899259077326 279.59679999999946 899.382291538744 279.72320000000053 900.34835646158 279.976 C 901.31442138442 280.2288000000005 901.79745384584 280.35519999999946 902.76351876868 280.608 C 903.729583691516 280.8607999999995 904.2126161529341 280.86080000000004 905.17868107577 281.24 C 906.144745998606 281.61920000000003 906.6277784600239 281.998400000001 907.59384338286 282.504 C 908.5599083056999 283.009600000001 909.04294076712 283.262399999999 910.00900568996 283.76800000000003 C 910.9750706127959 284.27359999999896 911.458103074214 284.52640000000105 912.42416799705 285.032 C 913.39023291989 285.537600000001 913.87326538131 285.79039999999895 914.83933030415 286.296 C 915.805395226986 286.8015999999989 916.288427688404 287.1808 917.25449261124 287.56 C 918.2205575340761 287.9392 918.7035899954941 287.9392000000005 919.66965491833 288.192 C 920.63571984117 288.44480000000055 921.1187523025899 288.57119999999946 922.08481722543 288.824 C 923.050882148266 289.0767999999995 923.533914609684 289.20320000000055 924.49997953252 289.456 C 925.4660444553599 289.7088000000005 925.94907691678 289.8351999999995 926.91514183962 290.088 C 927.881206762456 290.3407999999995 928.364239223874 290.46720000000005 929.33030414671 290.72 C 930.296369069546 290.9728 930.7794015309639 291.0992000000005 931.7454664538 291.352 C 932.7115313766401 291.60480000000047 933.1945638380599 291.73119999999943 934.1606287609 291.984 C 935.1266936837359 292.23679999999945 935.6097261451541 292.36320000000046 936.57579106799 292.616 C 937.5418559908301 292.86880000000053 938.02488845225 292.99519999999944 938.99095337509 293.248 C 939.957018297926 293.50079999999946 940.440050759344 293.88 941.40611568218 293.88 C 942.37218060502 293.88 942.85521306644 293.88 943.82127798928 293.88 C 944.7873429121161 293.88 945.2703753735341 293.88 946.23644029637 293.88 C 947.202505219206 293.88 947.685537680624 293.88 948.65160260346 293.88 C 949.6176675262999 293.88 950.10069998772 293.88 951.06676491056 293.88 C 952.0328298333959 293.88 952.515862294814 293.88 953.48192721765 293.88 C 954.44799214049 293.88 954.93102460191 294.2591999999995 955.89708952475 294.512 C 956.863154447586 294.7647999999995 957.3461869090039 294.8912 958.31225183184 295.144 C 959.2783167546761 295.3968 959.7613492160941 295.52320000000054 960.72741413893 295.776 C 961.6934790617701 296.02880000000056 962.1765115231901 296.1551999999995 963.14257644603 296.408 C 964.108641368866 296.6607999999995 964.591673830284 296.7872000000005 965.55773875312 297.04 C 966.5238036759599 297.2928000000005 967.00683613738 297.4191999999995 967.97290106022 297.672 C 968.938965983056 297.9247999999995 969.4219984444741 298.0512 970.38806336731 298.304 C 971.354128290146 298.55679999999995 971.837160751564 298.6832000000005 972.8032256744 298.936 C 973.7692905972399 299.1888000000005 974.25232305866 299.3151999999995 975.2183879815 299.568 C 976.1844529043359 299.82079999999945 976.6674853657539 300.2 977.63355028859 300.2 C 978.59961521143 300.2 979.08264767285 300.2 980.04871259569 300.2 C 981.014777518526 300.2 981.497809979944 300.2 982.46387490278 300.2 C 983.429939825616 300.2 983.9129722870341 300.2 984.87903720987 300.2 C 985.84510213271 300.2 986.3281345941301 300.2 987.29419951697 300.2 C 988.2602644398061 300.2 988.743296901224 300.2 989.70936182406 300.2 C 990.6754267468999 300.2 991.15845920832 300.5791999999995 992.12452413116 300.832 C 993.0905890539959 301.08479999999946 993.5736215154141 301.2112 994.53968643825 301.464 C 995.505751361086 301.71680000000003 995.988783822504 301.8432000000005 996.95484874534 302.096 C 997.92091366818 302.34880000000055 998.4039461296 302.47519999999787 999.37001105244 302.728 C 1000.3360759752638 302.9807999999979 1000.8191084366761 303.36 1001.7851733595 303.36 C 1002.7512382823401 303.36 1003.2342707437601 303.36 1004.2003356666 303.36 C 1005.16640058944 303.36 1005.64943305086 303.36 1006.6154979737 303.36 C 1007.5815628965399 303.36 1008.06459535796 303.36 1009.0306602808 303.36 C 1009.99672520364 303.36 1010.4797576650601 303.36 1011.4458225879 303.36 C 1012.41188751074 303.36 1012.8949199721599 303.36 1013.860984895 303.36 C 1014.8270498178401 303.36 1015.31008227926 303.7392 1016.2761472021 303.992 C 1017.2422121249399 304.2448 1017.72524458636 304.37120000000004 1018.6913095092 304.624 C 1019.65737443204 304.8768 1020.1404068934601 305.0032 1021.1064718163 305.256 C 1022.07253673914 305.50879999999995 1022.5555692005601 305.6352 1023.5216341234 305.888 C 1024.4876990462399 306.1408 1024.9707315076598 306.52 1025.9367964305 306.52 C 1026.9028613533399 306.52 1027.38589381476 306.52 1028.3519587376 306.52 C 1029.3180236604398 306.52 1029.80105612186 306.52 1030.7671210447 306.52 C 1031.73318596754 306.52 1032.2162184289598 306.52 1033.1822833518 306.52 C 1034.1483482746 306.52 1034.631380736 306.52 1035.5974456588 306.52 C 1036.56351058164 306.52 1037.04654304306 306.52 1038.0126079659 306.52 C 1038.97867288874 306.52 1039.4617053501602 306.52 1040.427770273 306.52 C 1041.39383519584 306.52 1041.8768676572602 306.52 1042.8429325801 306.52 C 1043.8089975029402 306.52 1044.29202996436 306.52 1045.2580948872 306.52 C 1046.2241598100402 306.52 1046.70719227146 306.52 1047.6732571943 306.52 C 1048.63932211714 306.52 1049.1223545785601 306.52 1050.0884195014 306.52 C 1051.05448442424 306.52 1051.5375168856601 306.52 1052.5035818085 306.52 C 1053.4696467313402 306.52 1053.9526791927601 306.52 1054.9187441156 306.52 C 1055.88480903844 306.52 1056.3678414998599 306.52 1057.3339064227 306.52 C 1058.29997134554 306.52 1058.78300380696 306.52 1059.7490687298 306.52 C 1060.71513365264 306.52 1061.19816611406 306.52 1062.1642310369 306.52 C 1063.1302959597401 306.52 1063.6133284211598 306.8992 1064.579393344 307.152 C 1065.5454582668401 307.4048 1066.0284907282598 307.53119999999996 1066.9945556511 307.784 C 1067.9606205739399 308.0367999999999 1068.44365303536 308.1632 1069.4097179582 308.416 C 1070.3757828810399 308.66880000000003 1070.85881534246 308.7952000000001 1071.8248802653 309.048 C 1072.79094518814 309.30080000000004 1073.27397764956 309.68 1074.2400425724 309.68 C 1075.2061074951998 309.68 1075.6891399565998 309.68 1076.6552048794 309.68 C 1077.6212698022398 309.68 1078.10430226366 309.68 1079.0703671865 309.68 C 1080.03643210934 309.68 1080.5194645707602 309.68 1081.4855294936 309.68 C 1082.45159441644 309.68 1082.9346268778602 309.68 1083.9006918007 309.68 C 1084.8667567235402 309.68 1085.3497891849602 309.68 1086.3158541078 309.68 C 1087.28191903064 309.68 1087.76495149206 309.68 1088.7310164149 309.68 C 1089.69708133774 309.68 1090.1801137991602 309.68 1091.146178722 309.68 C 1092.11224364484 309.68 1092.5952761062601 309.68 1093.5613410291 309.68 C 1094.5274059519402 309.68 1095.01043841336 309.68 1095.9765033362 309.68 C 1096.9425682590402 309.68 1097.42560072046 309.68 1098.3916656433 309.68 C 1099.35773056614 309.68 1099.8407630275601 309.68 1100.8068279504 309.68 C 1101.77289287324 309.68 1102.25592533466 309.68 1103.2219902575 309.68 C 1104.1880551803401 309.68 1104.67108764176 309.68 1105.6371525646 309.68 C 1106.60321748744 309.68 1107.0862499488599 309.68 1108.0523148717 309.68 C 1109.01837979454 309.68 1109.50141225596 309.68 1110.4674771788 309.68 C 1111.43354210164 309.68 1111.91657456306 309.68 1112.8826394859 309.68 C 1113.84870440874 309.68 1114.3317368701598 309.68 1115.297801793 309.68 C 1116.2638667158 309.68 1116.7468991771998 309.68 1117.7129641 309.68 C 1118.6790290228398 309.68 1119.16206148426 309.68 1120.1281264071 309.68 C 1121.0941913299398 309.68 1121.57722379136 309.68 1122.5432887142 309.68 C 1123.50935363704 309.68 1123.99238609846 309.68 1124.9584510213 309.68 C 1125.9245159441402 309.68 1126.40754840556 309.68 1127.3736133284 309.68 C 1128.3396782512402 309.68 1128.82271071266 309.68 1129.7887756355 309.68 C 1130.75484055834 309.68 1131.2378730197602 309.68 1132.2039379426 309.68 C 1133.17000286544 309.68 1133.6530353268602 309.68 1134.6191002497 309.68 C 1135.5851651725402 309.68 1136.0681976339602 310.05920000000003 1137.0342625568 310.312 C 1138.00032747964 310.5648 1138.48335994106 310.6912 1139.4494248639 310.944 C 1140.41548978674 311.1968 1140.8985222481601 311.3232 1141.864587171 311.576 C 1142.83065209384 311.82880000000006 1143.3136845552601 311.95520000000005 1144.2797494781 312.208 C 1145.2458144009402 312.46080000000006 1145.72884686236 312.84 1146.6949117852 312.84 C 1147.6609767080402 312.84 1148.1440091694599 312.84 1149.1100740923 312.84 C 1150.07613901514 312.84 1150.55917147656 312.84 1151.5252363994 312.84 C 1152.49130132224 312.84 1152.97433378366 312.84 1153.9403987065 312.84 C 1154.9064636293 312.84 1155.3894960907 312.84 1156.3555610135 312.84 C 1157.3216259363398 312.84 1157.8046583977598 312.84 1158.7707233206 312.84 C 1159.7367882434398 312.84 1160.21982070486 312.84 1161.1858856277 312.84 C 1162.1519505505398 312.84 1162.63498301196 312.84 1163.6010479348 312.84 C 1164.56711285764 312.84 1165.0501453190598 312.84 1166.0162102419 312.84 C 1166.98227516474 312.84 1168.431372549 312.84 1168.431372549 312.84" class="highcharts-graph" data-z-index="1" stroke="rgb(0,68,136)" stroke-opacity="0.9" stroke-width="1.8" stroke-dasharray="none"></path></g><g data-z-index="0.1" class="highcharts-markers highcharts-series-0 highcharts-spline-series cat-D subtype-EM" transform="translate(10,47) scale(1 1)" clip-path="none"></g><g data-z-index="0.1" class="highcharts-series highcharts-series-1 highcharts-spline-series cat-D subtype-EX" transform="translate(10,47) scale(1 1)" clip-path="url(#highcharts-msx2bl5-2573-)"><path fill="none" d="M 11.56862745098 281.24 C 11.56862745098 281.24 13.017724835236402 281.24 13.983789758074 281.24 C 14.949854680911603 281.24 15.4328871423304 281.24 16.398952065168 281.24 C 17.365016988005998 281.24 17.848049449424998 281.24 18.814114372263 281.24 C 19.780179295100602 281.24 20.2632117565194 281.24 21.229276679357 281.24 C 22.1953416021946 281.24 22.678374063613397 281.24 23.644438986451 281.24 C 24.6105039092886 281.24 25.0935363707074 280.48159999999996 26.059601293545 279.976 C 27.025666216382604 279.4704 27.5086986778014 279.2176 28.474763600639 278.712 C 29.440828523476604 278.2064 29.923860984895402 277.9536 30.889925907733 277.448 C 31.8559908305706 276.9424 32.3390232919894 276.6896 33.305088214827 276.18399999999997 C 34.2711531376646 275.67839999999995 34.75418559908341 275.55199999999996 35.720250521921 274.92 C 36.6863154447586 274.288 37.16934790617741 273.7824 38.135412829015 273.024 C 39.101477751852606 272.2656 39.5845102132714 271.8864 40.550575136109 271.128 C 41.5166400589466 270.3696 41.999672520365394 269.99039999999997 42.965737443203 269.23199999999997 C 43.9318023660406 268.4736 44.414834827459394 268.09440000000006 45.380899750297 267.336 C 46.34696467313459 266.5776 46.8299971345534 266.072 47.796062057391 265.44 C 48.762126980228594 264.808 49.2451594416474 264.6816 50.211224364485 264.176 C 51.1772892873226 263.6704 51.660321748741396 263.41759999999994 52.626386671579 262.912 C 53.5924515944166 262.40639999999996 54.075484055835396 262.15360000000004 55.041548978673 261.648 C 56.0076139015106 261.14240000000007 56.4906463629294 260.88960000000003 57.456711285767 260.384 C 58.4227762086046 259.8784 58.905808670023404 259.752 59.871873592861 259.12 C 60.8379385156986 258.488 61.3209709771174 257.9824 62.287035899955 257.224 C 63.25310082279259 256.4656 63.736133284211405 256.0864 64.702198207049 255.328 C 65.6682631298866 254.56959999999998 66.1512955913054 254.19039999999998 67.117360514143 253.432 C 68.0834254369806 252.67359999999996 68.5664578983994 252.2944 69.532522821237 251.536 C 70.4985877440746 250.77759999999998 70.9816202054934 250.14559999999997 71.947685128331 249.64 C 72.9137500511686 249.13439999999997 73.39678251258741 249.26079999999996 74.362847435425 249.00799999999998 C 75.3289123582626 248.75519999999997 75.8119448196814 248.6288 76.778009742519 248.376 C 77.7440746653566 248.1232 78.2271071267754 247.99679999999998 79.193172049613 247.744 C 80.1592369724506 247.4912 80.6422694338694 247.36479999999997 81.608334356707 247.112 C 82.57439927954461 246.8592 83.0574317409634 246.85920000000002 84.023496663801 246.48000000000002 C 84.9895615866386 246.10080000000002 85.4725940480574 245.7216 86.438658970895 245.216 C 87.40472389373261 244.7104 87.8877563551514 244.4576 88.853821277989 243.952 C 89.81988620082659 243.44639999999998 90.3029186622454 243.19359999999998 91.268983585083 242.688 C 92.2350485079206 242.1824 92.7180809693394 241.92960000000002 93.684145892177 241.424 C 94.65021081501459 240.91840000000002 95.1332432764334 240.16 96.099308199271 240.16 C 97.0653731221086 240.16 97.5484055835274 240.16 98.514470506365 240.16 C 99.480535429203 240.16 99.963567890622 240.16 100.92963281346 240.16 C 101.895697736296 240.16 102.378730197714 240.16 103.34479512055 240.16 C 104.31086004339 240.16 104.79389250480999 240.16 105.75995742765 240.16 C 106.726022350486 240.16 107.20905481190398 240.16 108.17511973474 240.16 C 109.14118465758 240.16 109.624217119 239.7808000000005 110.59028204184 239.52800000000002 C 111.55634696467601 239.27520000000055 112.039379426094 239.14880000000002 113.00544434893 238.89600000000002 C 113.971509271766 238.64320000000004 114.45454173318399 238.5167999999995 115.42060665602 238.264 C 116.38667157886 238.0111999999995 116.86970404028 237.88480000000052 117.83576896312 237.632 C 118.80183388595601 237.37920000000054 119.284866347374 237 120.25093127021 237 C 121.21699619305 237 121.70002865447 237.37919999999949 122.66609357731 237.632 C 123.63215850014599 237.88479999999947 124.11519096156398 238.0112 125.0812558844 238.264 C 126.04732080723599 238.51680000000002 126.530353268654 238.64320000000055 127.49641819149 238.89600000000002 C 128.46248311433 239.14880000000053 128.94551557575 239.2751999999995 129.91158049859 239.52800000000002 C 130.877645421426 239.78079999999946 131.360677882844 240.16 132.32674280568 240.16 C 133.29280772852 240.16 133.77584018993997 239.7808000000005 134.74190511278 239.52800000000002 C 135.707970035616 239.27520000000055 136.191002497034 239.14880000000002 137.15706741987 238.89600000000002 C 138.12313234270601 238.64320000000004 138.606164804124 238.5167999999995 139.57222972696 238.264 C 140.53829464979998 238.0111999999995 141.02132711122 237.88480000000052 141.98739203406 237.632 C 142.953456956896 237.37920000000054 143.436489418314 237 144.40255434115 237 C 145.36861926399 237 145.85165172541002 237 146.81771664825 237 C 147.783781571086 237 148.266814032504 237 149.23287895534 237 C 150.198943878176 237 150.681976339594 237 151.64804126243 237 C 152.61410618527003 237 153.09713864669 237 154.06320356953 237 C 155.02926849236601 237 155.512300953784 237 156.47836587662 237 C 157.44443079946 237 157.92746326088 237 158.89352818372 237 C 159.859593106556 237 160.34262556797398 237 161.30869049081 237 C 162.274755413646 237 162.75778787506403 237 163.7238527979 237 C 164.68991772074 237 165.17295018216 237 166.139015105 237 C 167.10508002783598 237 167.588112489254 237 168.55417741209 237 C 169.52024233493003 237 170.00327479635 237.75839999999897 170.96933971919 238.264 C 171.93540464202601 238.76959999999897 172.418437103444 239.0224 173.38450202628 239.52800000000002 C 174.350566949116 240.03360000000004 174.833599410534 240.28640000000107 175.79966433337 240.792 C 176.76572925621002 241.297600000001 177.24876171763 241.55039999999894 178.21482664047 242.05599999999998 C 179.18089156330603 242.56159999999895 179.663924024724 242.9408000000008 180.62998894756 243.32 C 181.5960538704 243.69920000000076 182.07908633182 243.6991999999995 183.04515125466 243.952 C 184.011216177496 244.20479999999947 184.494248638914 244.3312 185.46031356175 244.584 C 186.426378484586 244.83679999999998 186.90941094600402 244.9632000000005 187.87547586884 245.216 C 188.84154079168 245.46880000000053 189.3245732531 245.5951999999995 190.29063817594 245.848 C 191.256703098776 246.10079999999948 191.739735560194 246.10080000000076 192.70580048303 246.48000000000002 C 193.67186540587 246.8592000000008 194.15489786729 247.23839999999896 195.12096279013 247.744 C 196.087027712966 248.24959999999896 196.57006017438397 248.5024 197.53612509722 249.00799999999998 C 198.502190020056 249.51359999999994 198.98522248147398 249.76640000000103 199.95128740431 250.272 C 200.91735232715 250.77760000000103 201.40038478857 251.03039999999893 202.36644971141 251.536 C 203.332514634246 252.04159999999894 203.815547095664 252.29440000000108 204.7816120185 252.8 C 205.74767694134 253.30560000000102 206.23070940275997 253.55839999999895 207.1967743256 254.064 C 208.162839248436 254.56959999999896 208.64587170985402 254.8224 209.61193663269 255.328 C 210.578001555526 255.8336 211.061034016944 256.08640000000105 212.02709893978 256.592 C 212.99316386261998 257.09760000000097 213.47619632404002 257.35039999999896 214.44226124688 257.856 C 215.40832616971602 258.361599999999 215.891358631134 259.12 216.85742355397 259.12 C 217.82348847681 259.12 218.30652093823 259.12 219.27258586107 259.12 C 220.238650783906 259.12 220.72168324532404 259.12 221.68774816816 259.12 C 222.65381309099604 259.12 223.13684555241397 259.12 224.10291047525 259.12 C 225.06897539809 259.12 225.55200785951 259.12 226.51807278235 259.12 C 227.48413770518601 259.12 227.967170166604 259.12 228.93323508944 259.12 C 229.89930001227998 259.12 230.3823324737 259.49919999999946 231.34839739654 259.752 C 232.314462319376 260.0047999999995 232.797494780794 260.1312000000005 233.76355970363 260.384 C 234.72962462647 260.63680000000056 235.21265708789002 260.7631999999995 236.17872201073 261.016 C 237.144786933566 261.2687999999995 237.627819394984 261.39520000000005 238.59388431782 261.648 C 239.55994924065598 261.9008 240.04298170207397 262.28 241.00904662491 262.28 C 241.97511154775003 262.28 242.45814400916998 261.52160000000106 243.42420893201 261.016 C 244.39027385484596 260.5104000000011 244.873306316264 260.25759999999894 245.8393712391 259.752 C 246.80543616194 259.2463999999989 247.28846862336 258.99360000000104 248.2545335462 258.488 C 249.220598469036 257.98240000000106 249.70363093045398 257.7296 250.66969585329 257.224 C 251.63576077612598 256.71840000000003 252.11879323754403 255.96 253.08485816038 255.96 C 254.05092308322 255.96 254.53395554464 255.96 255.50002046748 255.96 C 256.466085390316 255.96 256.949117851734 255.96 257.91518277457 255.96 C 258.88124769741 255.96 259.36428015882996 255.96 260.33034508167 255.96 C 261.296410004506 255.96 261.77944246592403 255.96 262.74550738876 255.96 C 263.71157231159606 255.96 264.194604773014 255.96 265.16066969585 255.96 C 266.12673461868997 255.96 266.60976708011003 255.58080000000052 267.57583200295 255.328 C 268.54189692578603 255.0752000000005 269.024929387204 254.94879999999947 269.99099431004 254.696 C 270.95705923288 254.44319999999948 271.4400916943 254.3168000000005 272.40615661714 254.064 C 273.372221539976 253.81120000000053 273.85525400139403 253.6848 274.82131892423 253.432 C 275.78738384706605 253.17919999999998 276.27041630848396 253.05279999999948 277.23648123132 252.8 C 278.20254615415996 252.5471999999995 278.68557861558 252.42080000000053 279.65164353842 252.168 C 280.61770846125603 251.9152000000005 281.10074092267394 251.78879999999947 282.06680584551 251.536 C 283.03287076835 251.28319999999948 283.51590322977 251.15680000000057 284.48196815261 250.904 C 285.448033075446 250.6512000000005 285.931065536864 250.5248 286.8971304597 250.272 C 287.863195382536 250.0192 288.34622784395395 249.89279999999948 289.31229276679 249.64 C 290.27835768962996 249.38719999999947 290.76139015105 249.2608000000005 291.72745507389 249.00799999999998 C 292.69351999672597 248.7552000000005 293.17655245814404 248.62879999999947 294.14261738098 248.376 C 295.10868230382005 248.12319999999946 295.59171476524 247.99680000000052 296.55777968808 247.744 C 297.523844610916 247.49120000000053 298.006877072334 247.36479999999997 298.97294199517 247.112 C 299.939006918006 246.8592 300.422039379424 246.7327999999995 301.38810430226 246.48000000000002 C 302.3541692251 246.22719999999947 302.83720168651996 246.10080000000053 303.80326660936 245.848 C 304.76933153219596 245.59520000000055 305.25236399361404 245.4687999999995 306.21842891645 245.216 C 307.18449383929 244.9631999999995 307.66752630071005 244.83680000000052 308.63359122355 244.584 C 309.59965614638605 244.33120000000054 310.082688607804 244.20479999999998 311.04875353064 243.952 C 312.014818453476 243.69920000000002 312.497850914894 243.57279999999946 313.46391583773 243.32 C 314.42998076057 243.06719999999947 314.91301322198996 242.9408000000005 315.87907814483 242.688 C 316.845143067666 242.4352000000005 317.328175529084 242.30879999999945 318.29424045192 242.05599999999998 C 319.26030537476 241.80319999999946 319.74333783618005 241.67680000000053 320.70940275902 241.424 C 321.67546768185605 241.1712000000005 322.15850014327395 241.0448 323.12456506611 240.792 C 324.090629988946 240.53920000000002 324.573662450364 240.41279999999946 325.5397273732 240.16 C 326.50579229604 239.90719999999948 326.98882475746 239.78080000000054 327.9548896803 239.52800000000002 C 328.920954603136 239.27520000000058 329.403987064554 239.14879999999948 330.37005198739 238.89600000000002 C 331.33611691023 238.6431999999995 331.81914937165004 238.51680000000053 332.78521429449 238.264 C 333.751279217326 238.0112000000005 334.23431167874395 237.8848 335.20037660158 237.632 C 336.166441524416 237.37920000000003 336.649473985834 237.2527999999995 337.61553890867 237 C 338.58160383151 236.74719999999942 339.06463629293 236.62080000000051 340.03070121577 236.368 C 340.996766138606 236.11520000000053 341.479798600024 235.98879999999946 342.44586352286 235.736 C 343.4119284457 235.48319999999944 343.89496090712 235.3568000000005 344.86102582996 235.10399999999998 C 345.827090752796 234.85120000000052 346.310123214214 234.72479999999996 347.27618813705 234.47199999999998 C 348.242253059886 234.2192 348.72528552130404 233.84 349.69135044414 233.84 C 350.65741536698005 233.84 351.1404478284 233.84 352.10651275124 233.84 C 353.072577674076 233.84 353.555610135494 233.84 354.52167505833 233.84 C 355.48773998117 233.84 355.97077244259 233.84 356.93683736543 233.84 C 357.902902288266 233.84 358.385934749684 233.84 359.35199967252 233.84 C 360.318064595356 233.84 360.801097056774 233.84 361.76716197961 233.84 C 362.73322690245 233.84 363.21625936387005 233.84 364.18232428671 233.84 C 365.14838920954605 233.84 365.63142167096396 233.84 366.5974865938 233.84 C 367.56355151663996 233.84 368.04658397806 233.84 369.0126489009 233.84 C 369.97871382373603 233.84 370.46174628515394 233.84 371.42781120799 233.84 C 372.393876130826 233.84 372.876908592244 233.84 373.84297351508 233.84 C 374.80903843792004 233.84 375.29207089934 234.21919999999946 376.25813582218 234.47199999999998 C 377.224200745016 234.72479999999942 377.707233206434 234.85120000000052 378.67329812927 235.10399999999998 C 379.63936305211 235.3568000000005 380.12239551352997 235.48319999999944 381.08846043637 235.736 C 382.05452535920597 235.98879999999946 382.537557820624 236.1152 383.50362274346 236.368 C 384.469687666296 236.62079999999997 384.95272012771403 236.7472000000005 385.91878505055 237 C 386.88484997339003 237.25280000000058 387.36788243481 237.37919999999949 388.33394735765 237.632 C 389.300012280486 237.88479999999947 389.783044741904 238.01120000000054 390.74910966474 238.264 C 391.71517458758 238.51680000000056 392.19820704899996 238.6431999999995 393.16427197184 238.89600000000002 C 394.130336894676 239.14879999999948 394.61336935609404 239.27520000000004 395.57943427893 239.52800000000002 C 396.54549920176606 239.7808 397.028531663184 239.90720000000053 397.99459658602 240.16 C 398.96066150885997 240.41280000000052 399.44369397028004 240.53919999999948 400.40975889312 240.792 C 401.37582381595604 241.04479999999947 401.858856277374 241.1712000000005 402.82492120021 241.424 C 403.79098612304995 241.67680000000053 404.27401858447 241.80319999999946 405.24008350731 242.05599999999998 C 406.206148430146 242.30879999999945 406.689180891564 242.4352000000005 407.6552458144 242.688 C 408.62131073724 242.9408000000005 409.10434319866005 243.06719999999947 410.0704081215 243.32 C 411.036473044336 243.57279999999946 411.519505505754 243.69920000000002 412.48557042859 243.952 C 413.45163535142603 244.20479999999998 413.93466781284405 244.33120000000056 414.90073273568 244.584 C 415.86679765852006 244.83680000000055 416.34983011994 244.96319999999946 417.31589504278 245.216 C 418.281959965616 245.46879999999948 418.76499242703403 245.59520000000055 419.73105734987 245.848 C 420.69712227271003 246.10080000000053 421.18015473413 246.1007999999992 422.14621965697 246.48000000000002 C 423.112284579806 246.85919999999925 423.595317041224 247.23839999999998 424.56138196406 247.744 C 425.527446886896 248.2496 426.01047934831394 248.50240000000107 426.97654427115 249.00799999999998 C 427.94260919399005 249.51360000000102 428.42564165541 249.76639999999895 429.39170657825 250.272 C 430.35777150108606 250.77759999999896 430.840803962504 251.03040000000107 431.80686888534 251.536 C 432.77293380818 252.04160000000107 433.2559662696 252.29439999999897 434.22203119244 252.8 C 435.1880961152759 253.30559999999892 435.671128576694 253.55839999999998 436.63719349953 254.064 C 437.60325842236597 254.56959999999998 438.08629088378405 254.82240000000104 439.05235580662 255.328 C 440.01842072946 255.83360000000104 440.50145319088006 256.086399999999 441.46751811372 256.592 C 442.43358303655606 257.0975999999989 442.916615497974 257.350400000001 443.88268042081 257.856 C 444.84874534364997 258.36160000000103 445.33177780507003 258.3615999999985 446.29784272791 259.12 C 447.26390765074603 259.8783999999984 447.746940112164 260.63680000000005 448.713005035 261.648 C 449.67906995783596 262.6592 450.162102419254 263.16480000000206 451.12816734209 264.176 C 452.09423226493 265.18720000000206 452.57726472635005 265.69279999999793 453.54332964919 266.704 C 454.50939457202605 267.71519999999794 454.9924270334441 268.2208000000021 455.95849195628 269.23199999999997 C 456.9245568791201 270.24320000000216 457.4075893405399 270.8751999999981 458.37365426338 271.76 C 459.3397191862159 272.64479999999816 459.82275164763394 272.8976 460.78881657047 273.656 C 461.754881493306 274.4144 462.237913954724 274.79360000000156 463.20397887756 275.552 C 464.1700438004 276.31040000000155 464.65307626182005 276.68959999999845 465.61914118466 277.448 C 466.585206107496 278.20639999999844 467.06823856891396 278.58560000000153 468.03430349175 279.344 C 469.00036841458996 280.1024000000015 469.48340087601 280.4815999999984 470.44946579885 281.24 C 471.41553072168597 281.9983999999985 471.89856318310405 282.37760000000003 472.86462810594 283.136 C 473.830693028776 283.8944 474.313725490194 284.2736000000015 475.27979041303 285.032 C 476.24585533587 285.7904000000015 476.72888779729 286.1695999999984 477.69495272013 286.928 C 478.661017642966 287.6863999999984 479.14405010438406 288.0656000000016 480.11011502722 288.824 C 481.07617995006 289.5824000000016 481.55921241147996 290.21439999999893 482.52527733432 290.72 C 483.49134225715596 291.22559999999896 483.97437471857404 291.0992 484.94043964141 291.352 C 485.906504564246 291.60479999999995 486.389537025664 291.7312000000005 487.3556019485 291.984 C 488.32166687134 292.2368000000005 488.80469933276 292.36319999999944 489.7707642556 292.616 C 490.736829178436 292.8687999999995 491.219861639854 292.9952000000005 492.18592656269 293.248 C 493.15199148553 293.50080000000054 493.63502394694996 293.50079999999923 494.60108886979 293.88 C 495.5671537926261 294.25919999999917 496.050186254044 294.6384 497.01625117688 295.144 C 497.98231609971606 295.6496 498.46534856113396 295.902400000001 499.43141348397 296.408 C 500.3974784068099 296.913600000001 500.88051086823 297.166399999999 501.84657579107 297.672 C 502.812640713906 298.17759999999896 503.295673175324 298.43040000000104 504.26173809816 298.936 C 505.227803021 299.441600000001 505.71083548242007 299.8207999999992 506.67690040526 300.2 C 507.642965328096 300.5791999999992 508.125997789514 300.5792 509.09206271235 300.832 C 510.058127635186 301.0848 510.541160096604 301.21120000000053 511.50722501944 301.464 C 512.47328994228 301.71680000000055 512.9563224037 301.84319999999946 513.92238732654 302.096 C 514.8884522493761 302.3487999999995 515.371484710794 302.4752000000005 516.33754963363 302.728 C 517.3036145564699 302.9808000000005 517.78664701789 303.36 518.75271194073 303.36 C 519.7187768635661 303.36 520.2018093249841 303.36 521.16787424782 303.36 C 522.133939170656 303.36 522.616971632074 303.36 523.58303655491 303.36 C 524.54910147775 303.36 525.03213393917 303.36 525.99819886201 303.36 C 526.9642637848459 303.36 527.4472962462639 303.36 528.4133611691 303.36 C 529.37942609194 303.36 529.86245855336 303.36 530.8285234762 303.36 C 531.794588399036 303.36 532.2776208604539 303.36 533.24368578329 303.36 C 534.209750706126 303.36 534.692783167544 303.36 535.65884809038 303.36 C 536.6249130132201 303.36 537.1079454746401 303.36 538.07401039748 303.36 C 539.0400753203161 303.36 539.523107781734 303.36 540.48917270457 303.36 C 541.4552376274099 303.36 541.93827008883 303.36 542.90433501167 303.36 C 543.8703999345059 303.36 544.3534323959241 303.36 545.31949731876 303.36 C 546.285562241596 303.36 546.7685947030141 303.36 547.73465962585 303.36 C 548.70072454869 303.36 549.18375701011 303.36 550.14982193295 303.36 C 551.1158868557859 303.36 551.5989193172039 303.36 552.56498424004 303.36 C 553.53104916288 303.36 554.0140816242999 303.36 554.98014654714 303.36 C 555.946211469976 303.36 556.429243931394 303.36 557.39530885423 303.36 C 558.361373777066 303.36 558.844406238484 303.36 559.81047116132 303.36 C 560.77653608416 303.36 561.2595685455801 303.36 562.22563346842 303.36 C 563.1916983912561 303.36 563.674730852674 303.36 564.64079577551 303.36 C 565.60686069835 303.36 566.08989315977 303.36 567.05595808261 303.36 C 568.0220230054459 303.36 568.505055466864 303.36 569.4711203897 303.36 C 570.437185312536 303.36 570.920217773954 303.36 571.88628269679 303.36 C 572.85234761963 303.36 573.33538008105 303.36 574.30144500389 303.36 C 575.267509926726 303.36 575.7505423881439 303.36 576.71660731098 303.36 C 577.68267223382 303.36 578.16570469524 303.36 579.13176961808 303.36 C 580.0978345409161 303.36 580.580867002334 303.7392000000005 581.54693192517 303.992 C 582.51299684801 304.2448000000005 582.99602930943 304.37119999999953 583.96209423227 304.624 C 584.928159155106 304.8767999999995 585.4111916165241 305.0032 586.37725653936 305.256 C 587.3433214621961 305.50879999999995 587.8263539236141 305.6352000000005 588.79241884645 305.888 C 589.75848376929 306.1408000000005 590.24151623071 306.52 591.20758115355 306.52 C 592.1736460763859 306.52 592.6566785378039 306.52 593.62274346064 306.52 C 594.58880838348 306.52 595.0718408449 306.52 596.03790576774 306.52 C 597.003970690576 306.52 597.487003151994 306.52 598.45306807483 306.52 C 599.419132997666 306.52 599.9021654590839 306.52 600.86823038192 306.52 C 601.83429530476 306.52 602.31732776618 306.52 603.28339268902 306.52 C 604.2494576118561 306.52 604.732490073274 306.52 605.69855499611 306.52 C 606.66461991895 306.52 607.14765238037 306.52 608.11371730321 306.52 C 609.079782226046 306.52 609.562814687464 306.52 610.5288796103 306.52 C 611.494944533136 306.52 612.94404191739 306.52 612.94404191739 306.52" class="highcharts-graph" data-z-index="1" stroke="rgb(0,68,136)" stroke-opacity="0.9" stroke-width="1.8" stroke-dasharray="5.4,1.8"></path></g><g data-z-index="0.1" class="highcharts-markers highcharts-series-1 highcharts-spline-series cat-D subtype-EX" transform="translate(10,47) scale(1 1)" clip-path="none"></g></g><text x="10" class="highcharts-title" data-z-index="4" style="color:#333333;font-size:18px;fill:#333333;" y="24"></text><text x="600" text-anchor="middle" class="highcharts-subtitle" data-z-index="4" style="color:#666666;fill:#666666;" y="24"></text><text x="10" text-anchor="start" class="highcharts-caption" data-z-index="4" style="color:#666666;fill:#666666;" y="397"></text><g class="highcharts-legend" data-z-index="7" transform="translate(978,10)"><rect fill="none" class="highcharts-legend-box" rx="0" ry="0" x="0" y="0" width="211" height="25" visibility="visible"></rect><g data-z-index="1"><g><g class="highcharts-legend-item highcharts-spline-series highcharts-color-undefined cat-D subtype-EM highcharts-series-0" data-z-index="1" transform="translate(8,3)"><path fill="none" d="M 0 11 L 16 11" class="highcharts-graph" stroke-dasharray="none" stroke="rgb(0,68,136)" stroke-opacity="0.9" stroke-width="1.8"></path><text x="21" style="color:#333333;cursor:pointer;font-size:11px;font-weight:600;font-family:Roboto, -apple-system, BlinkMacSystemFont, &quot;Segoe UI&quot;, Helvetica, Arial, sans-serif, &quot;Apple Color Emoji&quot;, &quot;Segoe UI Emoji&quot;, &quot;Segoe UI Symbol&quot;;;fill:#333333;" text-anchor="start" data-z-index="2" y="14"><tspan>Riboflavin EM</tspan></text></g><g class="highcharts-legend-item highcharts-spline-series highcharts-color-undefined cat-D subtype-EX highcharts-series-1" data-z-index="1" transform="translate(117.0999984741211,3)"><path fill="none" d="M 0 11 L 16 11" class="highcharts-graph" stroke-dasharray="5.4,1.8" stroke="rgb(0,68,136)" stroke-opacity="0.9" stroke-width="1.8"></path><text x="21" y="14" style="color:#333333;cursor:pointer;font-size:11px;font-weight:600;font-family:Roboto, -apple-system, BlinkMacSystemFont, &quot;Segoe UI&quot;, Helvetica, Arial, sans-serif, &quot;Apple Color Emoji&quot;, &quot;Segoe UI Emoji&quot;, &quot;Segoe UI Symbol&quot;;;fill:#333333;" text-anchor="start" data-z-index="2"><tspan>Riboflavin EX</tspan></text></g></g></g></g><g class="highcharts-axis-labels highcharts-xaxis-labels" data-z-index="7"><text x="21.56862745098" style="color:#666666;cursor:default;font-size:11px;fill:#666666;" text-anchor="middle" transform="translate(0,0)" y="378" opacity="1">300</text><text x="142.32674280568" style="color:#666666;cursor:default;font-size:11px;fill:#666666;" text-anchor="middle" transform="translate(0,0)" y="378" opacity="1">350</text><text x="263.08485816038" style="color:#666666;cursor:default;font-size:11px;fill:#666666;" text-anchor="middle" transform="translate(0,0)" y="378" opacity="1">400</text><text x="383.84297351508" style="color:#666666;cursor:default;font-size:11px;fill:#666666;" text-anchor="middle" transform="translate(0,0)" y="378" opacity="1">450</text><text x="504.60108886979" style="color:#666666;cursor:default;font-size:11px;fill:#666666;" text-anchor="middle" transform="translate(0,0)" y="378" opacity="1">500</text><text x="625.35920422449" style="color:#666666;cursor:default;font-size:11px;fill:#666666;" text-anchor="middle" transform="translate(0,0)" y="378" opacity="1">550</text><text x="746.11731957919" style="color:#666666;cursor:default;font-size:11px;fill:#666666;" text-anchor="middle" transform="translate(0,0)" y="378" opacity="1">600</text><text x="866.87543493389" style="color:#666666;cursor:default;font-size:11px;fill:#666666;" text-anchor="middle" transform="translate(0,0)" y="378" opacity="1">650</text><text x="987.63355028859" style="color:#666666;cursor:default;font-size:11px;fill:#666666;" text-anchor="middle" transform="translate(0,0)" y="378" opacity="1">700</text><text x="1108.3916656433" style="color:#666666;cursor:default;font-size:11px;fill:#666666;" text-anchor="middle" transform="translate(0,0)" y="378" opacity="1">750</text></g><g class="highcharts-axis-labels highcharts-yaxis-labels" data-z-index="7"></g><g class="highcharts-axis-labels highcharts-yaxis-labels" data-z-index="7"></g><text x="1175" class="highcharts-credits" text-anchor="end" data-z-index="8" style="cursor:pointer;color:#999999;font-size:9px;display:block;fill:#999999;" y="353">fpbase.org</text></svg>